<?xml version="1.0" encoding="utf-8"?>
<!-- Generator: Adobe Illustrator 25.4.1, SVG Export Plug-In . SVG Version: 6.00 Build 0)  -->
<svg version="1.1" id="Layer_1" xmlns="http://www.w3.org/2000/svg" xmlns:xlink="http://www.w3.org/1999/xlink" x="0px" y="0px"
	 viewBox="0 0 530 299" style="enable-background:new 0 0 530 299;" xml:space="preserve">
<style type="text/css">
	.st0{opacity:0.33;fill:#23AAE2;}
	.st1{clip-path:url(#SVGID_00000005261849730194692770000012496952716310636182_);}
	.st2{opacity:0.1;fill:#505EA8;enable-background:new    ;}
	.st3{fill:#232956;}
	.st4{fill:#63371F;}
	.st5{fill:#8D4E2B;}
	.st6{fill:#E7E7E8;}
	.st7{fill:#1A1D3A;}
	.st8{fill:#F6B8C6;}
	.st9{fill:#ED6927;}
	.st10{opacity:0.25;fill:#29275D;enable-background:new    ;}
	.st11{opacity:0.4;fill:#FFFFFF;enable-background:new    ;}
	.st12{opacity:0.3;fill:#FFFFFF;enable-background:new    ;}
	.st13{fill:#2B1D11;}
	.st14{opacity:0.5;fill:#F6B8C6;enable-background:new    ;}
	.st15{fill:#415CA7;}
	.st16{opacity:0.25;fill:#232956;enable-background:new    ;}
	.st17{fill:#E7E6E7;}
	.st18{fill:#F0F1F1;}
	.st19{fill:#BCBDBF;}
	.st20{fill:#FFFFFF;}
	.st21{fill:#FEC716;}
	.st22{opacity:0.5;fill:#FEC716;enable-background:new    ;}
	.st23{fill:#AB3850;}
	.st24{fill:#963147;}
	.st25{fill:#B53D54;}
	.st26{fill:#EC638B;}
	.st27{opacity:0.15;fill:#232C58;enable-background:new    ;}
	.st28{fill:#F1F2F2;}
	.st29{fill:#CDCCCC;}
	.st30{fill:#999999;}
	.st31{fill:#808081;}
	.st32{fill:#EB8195;}
	.st33{fill:#124491;}
	.st34{fill:#2C59A5;}
	.st35{opacity:0.2;fill:#080C17;enable-background:new    ;}
	.st36{fill:#1E2446;}
	.st37{opacity:0.3;fill:#23AAE2;enable-background:new    ;}
	.st38{fill:#4E94D0;}
	.st39{opacity:0.3;}
	.st40{fill:#23AAE2;}
	.st41{opacity:0.95;fill:#FCFEFF;enable-background:new    ;}
	.st42{fill:#385369;}
	.st43{fill:#EEA886;}
	.st44{fill:#434343;}
	.st45{fill:#A77860;}
	.st46{fill:#0D2D3D;}
	.st47{fill:#173342;}
	.st48{fill:#1C3B54;}
	.st49{fill:#285173;}
	.st50{fill:#FBBD56;}
	.st51{fill:#183C59;}
	.st52{fill:#626261;}
	.st53{fill:#E0CEC7;}
	.st54{fill:#EEA887;}
	.st55{fill:url(#Path_37_00000134234082895612275500000001170732817310513323_);}
	.st56{fill:url(#Path_38_00000003803141829462442420000005956595224511988379_);}
	.st57{fill:url(#Path_39_00000094613891655858289020000002470700898776998818_);}
	.st58{fill:url(#Path_40_00000011020780185994468210000018360349231637892506_);}
	.st59{fill:url(#Path_41_00000114047076660685514930000001123015703545809583_);}
	.st60{fill:url(#Path_43_00000020387478430145754360000000326748070998464407_);}
	.st61{fill:url(#Path_44_00000128445013354970650160000017576034005868527012_);}
	.st62{fill:#344052;}
	.st63{fill:#986851;}
	.st64{fill:#E94747;}
	.st65{fill:#393D63;}
	.st66{fill:#674533;}
	.st67{fill:#DECBC4;}
	.st68{fill:#E9744D;}
	.st69{fill:#3C4145;}
	.st70{fill:#52575D;}
	.st71{fill:#F6E3DA;}
	.st72{fill:#D44040;}
	.st73{fill:#2E3233;}
	.st74{fill:#2A2C47;}
	.st75{fill:#424773;}
	.st76{fill:#3A3F47;}
	.st77{fill:#E3D3CB;}
	.st78{fill:#323657;}
	.st79{fill:#FFDF69;}
	.st80{fill:#AB9546;}
</style>
<g id="Group_1" transform="translate(-140 -1)">
	<rect id="Rectangle_660" x="140" y="1" class="st0" width="530" height="299"/>
	<g id="Component_78_1" transform="translate(126 -148)">
		<g>
			<defs>
				<rect id="SVGID_1_" y="13" width="558" height="558"/>
			</defs>
			<clipPath id="SVGID_00000175317935844050469130000017247219061630421430_">
				<use xlink:href="#SVGID_1_"  style="overflow:visible;"/>
			</clipPath>
			<g id="Group_66" style="clip-path:url(#SVGID_00000175317935844050469130000017247219061630421430_);">
				<path id="Path_1" class="st2" d="M-53.89,374.45c16.42,2.65,44.54,7.25,57.6,9.75c19.08,3.64,12.7,12.75,58.11,12.75
					s80.73-7.89,112.86-2.43s43.05-14.57,79.81-12.75c7.15,0.48,14.26,1.42,21.29,2.82c33.09,4.72,64.06,24.25,98.65,17.27
					c46.87-9.21,91.23-13.95,137.27-12.56c14.21,0.25,28.37-1.63,42.02-5.58c9.09-2.55,19.54-5.19,29.77-7.29
					c3.61-0.74,7.19-1.41,10.66-1.99L-53.89,374.45z"/>
				<g id="Group_44" transform="translate(441.3 233.039)">
					<g id="Group_38" transform="translate(25.29 61.629)">
						<path id="Path_139" class="st3" d="M23.91,88.21v4.56c0,0.76-0.61,1.37-1.37,1.37h-2.46l-0.2-0.32
							c-0.18-0.28-0.54-0.36-0.82-0.18c-0.08,0.05-0.15,0.12-0.2,0.2l-0.17,0.3h-7.53c-0.31,0-0.57-0.25-0.57-0.57
							c0-0.16,0.07-0.32,0.19-0.42l5.63-4.94L23.91,88.21z"/>
						<path id="Path_140" class="st3" d="M11.97,83.22l1.97,4.11c0.33,0.68,0.04,1.5-0.64,1.83l-2.22,1.07l-0.32-0.2
							c-0.28-0.17-0.64-0.09-0.81,0.19c-0.05,0.08-0.08,0.17-0.09,0.27l-0.03,0.34l-6.79,3.26c-0.28,0.13-0.62,0.02-0.75-0.27
							c-0.07-0.15-0.07-0.32-0.01-0.47l4.12-9.08L11.97,83.22z"/>
						<path id="Path_141" class="st4" d="M7.36,13L0,55.2l5.38,29.36l7.51-0.9c0,0-2.14-28.56-2.14-29.03s9.22-24.15,9.22-24.15
							l-3.29-13.78L7.36,13z"/>
						<path id="Path_142" class="st5" d="M32.32,13c0,0,1.8,14.66-1.07,28.2s-7.14,47.02-7.14,47.02h-7.79c0,0,0.32-56.52,0-56.85
							s-0.36-6.77-3.57-9.14C6.93,17.92,7.35,13,7.35,13L32.32,13z"/>
						<g id="Group_37" transform="translate(7.548 0.403)">
							<rect id="Rectangle_36" x="5.97" y="13" class="st6" width="5.89" height="2.95"/>
							<path id="Path_143" class="st7" d="M24.2,15.73H12.43c-0.1,0-0.17-0.08-0.17-0.17c0-0.1,0.08-0.17,0.17-0.17H24.2
								c0.1,0,0.17,0.08,0.17,0.17C24.37,15.65,24.29,15.73,24.2,15.73L24.2,15.73z"/>
							<path id="Path_144" class="st7" d="M24.2,13.58H12.43c-0.1,0-0.17-0.08-0.17-0.17c0-0.1,0.08-0.17,0.17-0.17H24.2
								c0.1,0,0.17,0.08,0.17,0.17C24.37,13.5,24.29,13.58,24.2,13.58L24.2,13.58z"/>
							<path id="Path_145" class="st7" d="M5.59,15.73H0.17c-0.1,0-0.17-0.08-0.17-0.17c0-0.1,0.08-0.17,0.17-0.17h5.42
								c0.1,0,0.17,0.08,0.17,0.17C5.77,15.65,5.69,15.73,5.59,15.73z"/>
							<path id="Path_146" class="st7" d="M5.59,13.58H0.17C0.08,13.58,0,13.5,0,13.4c0-0.1,0.08-0.17,0.17-0.17h5.42
								c0.1,0,0.17,0.08,0.17,0.17C5.77,13.5,5.69,13.58,5.59,13.58z"/>
						</g>
					</g>
					<path id="Path_147" class="st8" d="M25.31,47.77l-3.69,20.12c0,0-0.95,3.18,0.69,3.87s7.76,0,7.76,0l0.46,0.99H32
						c0,0,1.41-3.17,0.68-4.06s-3.06-1.15-3.06-1.15l3.54-17.78L25.31,47.77z"/>
					<path id="Path_148" class="st9" d="M43.12,33.05c0,0,18.12-0.92,19.13,0s9.01,15.62,9.01,15.62s-0.5,1.08-3.03,1.73
						s-11.04,1.95-11.04,1.95l1.81,21.89c0.04,0.47-0.31,0.88-0.78,0.92c-0.02,0-0.05,0-0.07,0l-25.9-0.11
						c-0.46,0-0.84-0.37-0.86-0.84l-0.91-24.1l-7.71-3.46c0,0,4.76-11.31,5.77-11.82S43.12,33.05,43.12,33.05z"/>
					<path id="Path_149" class="st10" d="M50.58,65.6c0.89-3.36,0.16-6.95-1.1-10.2s-3.01-6.27-4.26-9.51s-2-6.83-1.12-10.19
						c1.22-0.16,2.42,0.44,3.02,1.52c0.95-0.94,1.66-2.09,2.07-3.36c0.15-0.4,0.38-0.77,0.67-1.09c5.27-0.17,11.78-0.27,12.38,0.28
						c1.01,0.92,9.01,15.62,9.01,15.62s-0.5,1.08-3.03,1.73s-11.04,1.95-11.04,1.95L59,74.23c0.04,0.47-0.31,0.88-0.78,0.92
						c-0.03,0-0.05,0-0.08,0l-17.12-0.07C45.42,73.41,49.39,70.1,50.58,65.6z"/>
					<path id="Path_150" class="st10" d="M47.03,149.84c1.37-18.03,5.27-51.35,5.75-53.3c0.6-2.45,1.2-5.04,0.53-7.48
						c-0.73-2.25-2.22-4.17-4.2-5.46c-1.97-1.27-4.05-2.36-6.21-3.26c-3.54-1.66-6.97-3.54-10.26-5.65c0-0.04,0-0.07,0-0.07H57.6
						c0,0,0.02,0.18,0.06,0.52l0,0c0.01,0.07,0.02,0.16,0.03,0.24c0,0.02,0,0.03,0,0.05c0,0.03,0.01,0.07,0.01,0.1s0,0.05,0.01,0.07
						s0.01,0.07,0.01,0.1l0.01,0.09l0.01,0.11c0,0.03,0.01,0.06,0.01,0.1s0.01,0.08,0.01,0.12l0.01,0.11c0,0.04,0.01,0.08,0.01,0.12
						s0.01,0.09,0.01,0.13s0.01,0.07,0.01,0.11s0.01,0.1,0.01,0.16l0.01,0.1c0.01,0.09,0.01,0.18,0.02,0.27v0.04
						c0.01,0.08,0.01,0.16,0.02,0.25c0,0.04,0.01,0.07,0.01,0.11l0.01,0.2c0,0.04,0.01,0.08,0.01,0.12l0.01,0.2
						c0,0.04,0.01,0.08,0.01,0.13c0,0.07,0.01,0.14,0.01,0.2c0,0.05,0.01,0.09,0.01,0.14c0,0.07,0.01,0.14,0.01,0.21
						c0,0.05,0.01,0.09,0.01,0.14c0,0.08,0.01,0.15,0.01,0.23c0,0.04,0.01,0.08,0.01,0.13c0.01,0.09,0.01,0.18,0.02,0.28
						c0,0.03,0,0.06,0.01,0.09c0.01,0.25,0.03,0.52,0.04,0.79c0,0.04,0,0.07,0,0.11c0,0.1,0.01,0.2,0.01,0.3
						c0,0.05,0,0.09,0.01,0.14c0,0.09,0.01,0.19,0.01,0.28c0,0.05,0,0.1,0.01,0.16c0,0.09,0.01,0.18,0.01,0.28
						c0,0.05,0,0.11,0.01,0.16c0,0.09,0.01,0.19,0.01,0.29c0,0.05,0,0.11,0.01,0.16c0,0.1,0,0.2,0.01,0.3c0,0.05,0,0.1,0,0.15
						c0,0.12,0.01,0.23,0.01,0.35c0,0.04,0,0.07,0,0.11c0.01,0.31,0.01,0.64,0.02,0.96c0,0.04,0,0.09,0,0.13c0,0.12,0,0.24,0,0.36
						c0,0.06,0,0.11,0,0.16c0,0.11,0,0.22,0,0.34c0,0.06,0,0.12,0,0.18c0,0.11,0,0.22,0,0.33c0,0.06,0,0.13,0,0.19
						c0,0.11,0,0.22,0,0.33c0,0.06,0,0.12,0,0.19c0,0.12,0,0.24,0,0.35c0,0.06,0,0.11,0,0.17c0,0.14,0,0.27-0.01,0.41
						c0,0.04,0,0.08,0,0.13c-0.01,0.36-0.01,0.73-0.03,1.09c0,0.05,0,0.1,0,0.15c0,0.13-0.01,0.26-0.01,0.4c0,0.07,0,0.13-0.01,0.2
						c0,0.12-0.01,0.24-0.01,0.36c0,0.07-0.01,0.14-0.01,0.21c0,0.12-0.01,0.23-0.02,0.35c0,0.07-0.01,0.15-0.01,0.22
						c-0.01,0.12-0.01,0.24-0.02,0.35c0,0.07-0.01,0.15-0.01,0.22C58,91.09,58,91.21,57.99,91.34c0,0.07-0.01,0.14-0.01,0.2
						c-0.01,0.14-0.02,0.28-0.03,0.41c0,0.06-0.01,0.11-0.01,0.17c-0.03,0.39-0.05,0.78-0.08,1.17c0,0.06-0.01,0.12-0.02,0.18
						c-0.01,0.14-0.02,0.27-0.03,0.41c-0.01,0.07-0.01,0.15-0.02,0.22c-0.01,0.12-0.02,0.25-0.03,0.37l-0.02,0.24
						c-0.01,0.12-0.02,0.24-0.04,0.36c-0.01,0.08-0.02,0.16-0.02,0.24l-0.04,0.36c-0.01,0.08-0.02,0.16-0.03,0.24
						c-0.01,0.13-0.03,0.25-0.04,0.38l-0.03,0.23c-0.02,0.14-0.03,0.28-0.05,0.42c-0.01,0.06-0.02,0.12-0.02,0.19
						c-0.05,0.4-0.1,0.8-0.16,1.21c-0.01,0.06-0.02,0.13-0.03,0.2c-0.02,0.13-0.04,0.27-0.06,0.41c-0.01,0.08-0.02,0.16-0.04,0.23
						c-0.02,0.12-0.04,0.25-0.06,0.37l-0.04,0.25c-0.02,0.12-0.04,0.24-0.06,0.36l-0.04,0.25c-0.02,0.12-0.04,0.24-0.06,0.36
						c-0.02,0.08-0.03,0.17-0.04,0.25c-0.02,0.12-0.05,0.25-0.07,0.37c-0.02,0.08-0.03,0.16-0.04,0.23
						c-0.03,0.14-0.05,0.27-0.08,0.41c-0.01,0.07-0.03,0.13-0.04,0.2c-0.04,0.2-0.08,0.4-0.12,0.6
						c-2.88,13.54-7.14,47.02-7.14,47.02L47.03,149.84z"/>
					<path id="Path_151" class="st3" d="M68.23,50.37c-0.57,0.15-1.45,0.33-2.46,0.52c0.01-0.34,0.35-0.69,1.55-0.83
						c1.42-0.08,2.79-0.57,3.94-1.42C71.26,48.64,70.76,49.72,68.23,50.37z"/>
					<path id="Path_152" class="st8" d="M35.83,20.31c0.31,1.35,0.54,2.72,0.68,4.1c0.14,1.71,0.41,3.7,2.74,4.45
						s1.98,0.55,1.98,0.55c0.08,1.65-0.84,2.57-1.49,3.95l3.58,2.69l5.16-3.24c0,0-3.08-1.89-2.19-3.94
						c0.88-2.53,1.61-5.1,2.19-7.72c0,0-1.6-3.03-4.51-3.61C41.36,17.01,37.51,18.85,35.83,20.31z"/>
					<g id="Group_39" transform="translate(35.826 6.348)">
						<path id="Path_153" class="st11" d="M0.68,18.07c-0.15-1.38-0.38-2.75-0.68-4.1C0.42,13.6,0.87,13.28,1.34,13
							c0.03,0.5,0,1.01-0.11,1.5c-0.08,1.42-0.05,2.85,0.1,4.27c0.04,0.76,0.23,1.5,0.56,2.19c0.37,0.61,0.86,1.13,1.45,1.53
							C1.09,21.73,0.82,19.76,0.68,18.07z"/>
						<path id="Path_154" class="st12" d="M5.33,24.03c0.06,0.09,0.12,0.19,0.16,0.29c0.21,0.63,0.19,1.3-0.04,1.92
							c-0.13,0.51-0.34,1.01-0.61,1.46L3.91,27C4.5,26.07,4.98,25.08,5.33,24.03z"/>
					</g>
					<path id="Path_155" class="st13" d="M42.05,25.4c-0.33-0.57-0.98-0.89-1.64-0.81c-1.17,0.11-2.04-0.22-2.62,1.21
						c0,0-0.25,0.38-0.45,0.34c0.66,0.29,1.41,0.29,2.06,0c0.92-0.52,0.94,0.17,1.88,0.23c0.47,0.07,0.95-0.04,1.34-0.3
						C42.63,26.07,42,25.83,42.05,25.4z"/>
					<path id="Path_156" class="st13" d="M33.63,17.9c0,0,0-0.01,0.01-0.01c-0.05-1.31,0.7-2.53,1.9-3.06
						c1.23-0.44,2.53-0.65,3.83-0.63h0.01c0.11-0.06,3.02-1.61,5.5-1.08c1.61,0.44,2.98,1.51,3.79,2.98l0,0
						c0.05,0.05,2.12,2.01,2.03,4.06c-0.12,1.32-0.79,2.53-1.84,3.33c0,0.01,0,0.01,0,0.02c0.45,0.68,0.52,1.55,0.17,2.29
						c-0.16,0.27-0.3,0.55-0.43,0.84c-0.57,1.3-1.4,2.47-2.42,3.44l0,0c-0.01,0.01-0.01,0.01-0.02,0c0,0,0-0.01,0-0.01L45.6,26.4
						c0-0.01,0-0.01,0.01-0.02c1.15-0.29,1.88-1.4,1.7-2.57c-0.05-2.3-1.04-2.03-1.62-1.81c-0.27,0.17-0.49,0.43-0.6,0.73
						c0,0,0,0,0,0.01c-0.03,0.69-0.16,1.37-0.38,2.02l0,0c-0.01,0.13-0.07,0.24-0.15,0.34l0,0c0,0-0.02,0.05-0.04,0.13l0,0
						c-0.04,0.69,1.58,2.92,0.04,4.24c-1.66,1.43-5.21,0.88-6.82,0c-1.45-0.79-1.12-3.03-1.03-3.47c0-0.01,0.01-0.01,0.02-0.01
						c0,0,0.01,0.01,0.01,0.01c0.24,1.06,1.28,1.73,2.34,1.5c0.55-0.13,1.34-0.52,1.94-0.13c0.49,0.31,1.67-0.02,2.1-0.15
						c0.1-0.03,0.17-0.11,0.19-0.21l0,0c0.02-0.9,0.24-1.78,0.66-2.57c0.19-0.83,0.32-1.68,0.39-2.54c0,0,0,0,0-0.01
						c-0.05-0.13-0.12-0.25-0.19-0.36c-0.38-0.54-0.57-1.19-0.55-1.85l0.03-0.59c0-0.01-0.01-0.01-0.01-0.02c0,0,0,0,0,0
						c-1.56,0.25-3.13,0.41-4.71,0.47c-1.01,0.03-2.01,0.26-2.94,0.66c-0.01,0-0.01,0.01-0.01,0.01l0.1,1.08
						c0,0.01-0.01,0.01-0.01,0.01c0,0,0,0-0.01,0C35.69,21.17,31.82,19.37,33.63,17.9z"/>
					<path id="Path_157" class="st14" d="M39.03,15.37c0.11-0.35,0.26-0.68,0.44-1c0.06-0.11,0.13-0.22,0.2-0.33
						c1.6-0.82,3.42-1.15,5.2-0.93c1.61,0.44,2.98,1.51,3.79,2.98l0,0c0.05,0.05,2.12,2.01,2.03,4.06
						c-0.12,1.32-0.79,2.53-1.84,3.33c0,0.01,0,0.01,0,0.02c0.45,0.68,0.52,1.55,0.17,2.29c-0.16,0.27-0.3,0.55-0.43,0.84
						c-0.57,1.29-1.39,2.46-2.42,3.44c0.34,1.53,2.3,2.73,2.3,2.73l-1.19,0.75c-0.5,0.2-0.96,0.49-1.36,0.85l-0.14,0.09
						c0.04-0.34-0.07-0.67-0.29-0.93c-0.45-0.37-0.97-0.64-1.54-0.79c-1.15-0.47-2.14-1.28-2.82-2.32c0.01-0.04,0.02-0.08,0.03-0.12
						l-0.11-0.01c-0.55-0.85-0.88-1.83-0.95-2.84c0.02-0.81-0.02-1.62-0.12-2.43c-0.11-0.83-0.71-1.5-1.52-1.71
						c0.69-1.2,1.03-2.56,0.97-3.94c-0.04,0.01-0.07,0.02-0.11,0.02c-0.94,0.12-1.96-0.46-2.79-0.01c-0.27,0.18-0.52,0.39-0.75,0.61
						c-0.24,0.23-0.58,0.32-0.9,0.23c-0.28-0.13-0.45-0.42-0.44-0.73c0.01-0.3,0.1-0.6,0.26-0.86
						C35.59,16.99,37.17,15.78,39.03,15.37z"/>
					<path id="Path_158" class="st7" d="M56.8,51.19c-0.08,0-0.16-0.06-0.17-0.15c-1.64-10.56,0.84-14.56,0.94-14.72
						c0.06-0.08,0.16-0.1,0.24-0.04c0.07,0.05,0.09,0.15,0.05,0.23c-0.03,0.04-2.51,4.08-0.89,14.48c0.02,0.09-0.05,0.18-0.14,0.2
						c0,0,0,0,0,0L56.8,51.19z"/>
					<path id="Path_159" class="st7" d="M30.53,48.62c-0.09,0-0.16-0.07-0.17-0.16L29.44,37.9c-0.01-0.09,0.06-0.18,0.16-0.19
						c0.09-0.01,0.18,0.06,0.19,0.15c0,0,0,0,0,0.01l0.92,10.56c0.01,0.09-0.06,0.18-0.16,0.19L30.53,48.62z"/>
					<path id="Path_160" class="st7" d="M47.52,37.59l-3-1.63c-0.09-0.04-0.13-0.14-0.09-0.22c0.04-0.09,0.14-0.13,0.22-0.09
						c0.01,0,0.02,0.01,0.03,0.02l2.68,1.45l1.79-3.81c0.04-0.08,0.15-0.12,0.23-0.07c0.08,0.04,0.11,0.14,0.08,0.22L47.52,37.59z"
						/>
					<path id="Path_161" class="st7" d="M39.89,37.62l-1.08-3.66c-0.02-0.09,0.03-0.19,0.12-0.21c0.09-0.02,0.18,0.02,0.21,0.11
						l0.95,3.23l2.02-1.2c0.08-0.05,0.19-0.02,0.24,0.06c0.05,0.08,0.02,0.19-0.06,0.24l0,0L39.89,37.62z"/>
					<path id="Path_162" class="st7" d="M43.44,38.56h-0.07c-0.47-0.02-0.83-0.42-0.81-0.88c0.02-0.47,0.42-0.83,0.88-0.81
						c0.47,0.02,0.83,0.42,0.81,0.88C44.24,38.19,43.88,38.54,43.44,38.56z M43.44,37.2c-0.26,0-0.48,0.2-0.51,0.47l0,0
						c-0.02,0.28,0.18,0.52,0.46,0.55c0,0,0,0,0,0c0.28,0.02,0.52-0.19,0.55-0.46s-0.19-0.52-0.46-0.55L43.44,37.2z M42.76,37.66
						L42.76,37.66z"/>
					<path id="Path_163" class="st7" d="M43.44,40.87h-0.07c-0.47-0.02-0.83-0.42-0.81-0.88c0.02-0.47,0.42-0.83,0.88-0.81
						c0.47,0.02,0.83,0.42,0.81,0.88C44.24,40.5,43.88,40.85,43.44,40.87z M43.44,39.51c-0.26,0-0.48,0.2-0.51,0.47l0,0
						c-0.02,0.28,0.18,0.52,0.46,0.55c0,0,0,0,0,0c0.28,0.02,0.52-0.19,0.55-0.46s-0.19-0.52-0.46-0.55L43.44,39.51z M42.76,39.96
						L42.76,39.96z"/>
					<path id="Path_164" class="st8" d="M67.32,50.06c0,0-0.96,20.44-1.83,21.79s-25.36,0-25.36,0s-1.95,1.03-3.1,0.6
						c-0.5-0.21-1.02-0.37-1.55-0.49l-0.56,0.79l-0.71-0.07l0.38-1.9H34.2l-0.41,1.98h-0.83l0.25-2.02h-0.25l-0.29,2.02h-0.67
						l-0.25-3.18c0,0,1.07-1.55,1.41-1.55c0.63,0.1,1.27,0.08,1.89-0.06c0.89-0.36,0.87-0.1,1.45,0.28s4.25,0.54,4.25,0.54
						l16.97-2.21l-0.74-14.38C56.98,52.19,60.38,49.4,67.32,50.06z"/>
					<path id="Path_165" class="st11" d="M32.25,68.88c0.33-0.42,0.72-0.87,0.9-0.87c0.63,0.1,1.27,0.08,1.89-0.06
						c0.89-0.36,0.87-0.1,1.45,0.28s4.25,0.54,4.25,0.54l16.97-2.21l-0.74-14.38c0.2-0.15,0.4-0.29,0.61-0.41
						c0.89,0.3,0.91,0.81,1.04,1.94c0.36,3.03,0.71,6.05,1.07,9.08l0.6,5.04c0.3,0.69-0.02,1.49-0.72,1.79
						c-0.26,0.11-0.55,0.14-0.83,0.08l-17.11,0.88c-1.03,0.12-2.06,0.04-3.06-0.24c-1.16-0.41-2.1-1.36-3.31-1.57
						c-0.76-0.06-1.51-0.02-2.26,0.11C32.77,68.91,32.51,68.91,32.25,68.88z"/>
					<g id="Group_40" transform="translate(72.018 60.149)">
						<path id="Path_166" class="st15" d="M1.36,95.72h0.81L3.54,13H0L1.36,95.72z"/>
						<path id="Path_167" class="st16" d="M0,13h3.54l-0.07,3.92l-3.43-2.4L0,13z"/>
					</g>
					<g id="Group_41" transform="translate(8.026 60.149)">
						<path id="Path_168" class="st15" d="M1.36,95.72h0.81L3.54,13H0L1.36,95.72z"/>
						<path id="Path_169" class="st16" d="M0,13h3.54l-0.07,3.92l-3.43-2.4L0,13z"/>
					</g>
					<path id="Path_170" class="st15" d="M2.65,73.9h76.57c0.41,0,0.75-0.34,0.75-0.75c0,0,0,0,0,0l0,0c0-0.41-0.34-0.75-0.75-0.75
						H2.65c-0.41,0-0.75,0.34-0.75,0.75l0,0C1.9,73.56,2.24,73.9,2.65,73.9z"/>
					<g id="Group_43" transform="translate(0 42.998)">
						<path id="Path_171" class="st17" d="M38.23,29.4H13.46c-0.64,0-1.16-0.52-1.16-1.16h27.1C39.4,28.88,38.88,29.4,38.23,29.4
							C38.23,29.4,38.23,29.4,38.23,29.4z"/>
						<path id="Path_172" class="st18" d="M35.05,29.4H7.81c-0.64,0-1.16-0.52-1.16-1.16h27.04C33.9,28.75,34.17,29.4,35.05,29.4z"
							/>
						<g id="Group_42" transform="translate(29.304 15.627)">
							<path id="Path_173" class="st19" d="M1.25,13.46H0.23C0.1,13.46,0,13.36,0,13.23l0,0C0,13.1,0.1,13,0.23,13h1.02
								c0.13,0,0.23,0.1,0.23,0.23l0,0C1.48,13.36,1.38,13.46,1.25,13.46z"/>
							<ellipse id="Ellipse_3" class="st19" cx="2.09" cy="13.23" rx="0.23" ry="0.23"/>
						</g>
						<path id="Path_174" class="st20" d="M1.15,13h24.04c0.76,0,1.45,0.44,1.78,1.12l6.78,14.12H6.64l-6.53-13.6
							c-0.27-0.57-0.03-1.25,0.54-1.53C0.8,13.04,0.97,13,1.15,13z"/>
						<path id="Path_175" class="st17" d="M25.15,13h0.72c0.76,0,1.45,0.44,1.78,1.12l6.78,14.12H33.7l-6.78-14.12
							C26.6,13.44,25.9,13,25.15,13z"/>
					</g>
				</g>
				<g id="Group_31" transform="translate(377.137 257.903)">
					<g id="Group_30" transform="translate(-3 8)">
						<g id="Group_29">
							<path id="Path_77" class="st21" d="M81.06,42.29c0,0,9.55,23.7,8.44,28.01s-12.94,0.8-12.94,0.8l3.89-28.05L81.06,42.29z"/>
							<path id="Path_78" class="st22" d="M76.55,71.1l3.61-26.07c0.17,0.57,0.32,1.13,0.48,1.53c0.47,1.22,0.92,2.45,1.37,3.68
								c1.79,4.93,3.41,9.91,4.86,14.95c0.47,1.63,0.91,3.43,0.16,4.95c-0.59,1.05-1.54,1.86-2.66,2.29
								C81.72,72.28,79.1,71.83,76.55,71.1z"/>
							<g id="Group_20" transform="translate(6.616 59.422)">
								<rect id="Rectangle_22" x="26.32" y="20.93" class="st23" width="1.88" height="78.23"/>
								<path id="Path_79" class="st23" d="M8.11,62.72h1.88c0-0.4,0.98-1.34,4.7-2.11c7.82-1.32,15.8-1.32,23.62,0
									c3.72,0.77,4.7,1.71,4.7,2.11h1.88c0-1.8-2.03-3.09-6.21-3.95c-8.07-1.37-16.31-1.37-24.38,0
									C10.14,59.63,8.11,60.92,8.11,62.72z"/>
								<g id="Group_18" transform="translate(24.015 5.274)">
									
										<rect id="Rectangle_23" x="17.99" y="12.59" transform="matrix(0.986 -0.1669 0.1669 0.986 -8.6382 3.9058)" class="st23" width="1.88" height="81.55"/>
									<rect id="Rectangle_24" x="22.26" y="93" class="st23" width="6.49" height="3.73"/>
									<rect id="Rectangle_25" x="0" y="92.68" class="st23" width="6.49" height="3.94"/>
								</g>
								<g id="Group_19" transform="translate(0 5.274)">
									
										<rect id="Rectangle_26" x="-30.95" y="52.42" transform="matrix(0.1669 -0.986 0.986 0.1669 -44.4238 54.1457)" class="st23" width="81.55" height="1.88"/>
									<rect id="Rectangle_27" x="0" y="92.38" class="st23" width="6.49" height="4.34"/>
								</g>
								<path id="Path_80" class="st23" d="M26.51,66.74c4.09,0.05,8.17-0.3,12.19-1.03c4.18-0.86,6.21-2.15,6.21-3.95h-1.88
									c0,0.39-0.98,1.34-4.7,2.11c-7.82,1.32-15.8,1.32-23.62,0c-3.72-0.77-4.7-1.71-4.7-2.11H8.12c0,1.8,2.03,3.09,6.2,3.95
									C18.34,66.45,22.42,66.79,26.51,66.74z"/>
								<path id="Path_81" class="st24" d="M51.58,16.62L51.58,16.62c0-2-10.79-3.61-24.1-3.61s-24.1,1.62-24.1,3.61v1.77
									c0,2,10.79,3.61,24.1,3.61s24.1-1.62,24.1-3.61V16.62z"/>
								<path id="Path_82" class="st25" d="M27.47,13c13.31,0,24.1,1.62,24.1,3.61s-10.79,3.61-24.1,3.61s-24.1-1.62-24.1-3.61
									S14.16,13,27.47,13"/>
							</g>
							<g id="Group_21" transform="translate(13.623 44.775)">
								<path id="Path_83" class="st20" d="M33.3,30.76h-27L0.32,13h27L33.3,30.76z"/>
								<path id="Path_84" class="st26" d="M30.71,28.02H7.27L2.51,14.2h23.44L30.71,28.02z"/>
								<path id="Path_85" class="st27" d="M25.94,14.2H2.51l0.07,0.21h23.19l4.7,13.61h0.25L25.94,14.2z"/>
								<path id="Path_86" class="st6" d="M33.3,30.76h-27l-0.75-2.24h27L33.3,30.76z"/>
								<path id="Path_87" class="st28" d="M39.74,30.08H6.24L0.32,13l0,0c-0.41,1.06-0.43,2.23-0.06,3.3l5.06,14.66
									c0.14,0.39,0.51,0.66,0.92,0.66h33.5c0.42,0,0.77-0.34,0.77-0.77c0,0,0,0,0,0l0,0C40.51,30.42,40.16,30.08,39.74,30.08z"/>
								<path id="Path_88" class="st29" d="M6.24,30.08h2.38v1.54H6.24c-0.42,0-0.79-0.26-0.92-0.66L0.26,16.3
									c-0.37-1.07-0.35-2.24,0.06-3.3l0,0L6.24,30.08z"/>
								<path id="Path_89" class="st20" d="M6.45,30.81c0,0.17-0.13,0.3-0.3,0.3s-0.3-0.13-0.3-0.3s0.13-0.3,0.3-0.3
									S6.45,30.65,6.45,30.81L6.45,30.81z"/>
								<path id="Path_90" class="st20" d="M25.71,29.26H12.37c-0.25,0-0.48-0.15-0.58-0.38l-0.28-0.64h14.27l0.24,0.55
									c0.07,0.17,0,0.37-0.17,0.44C25.8,29.25,25.76,29.25,25.71,29.26z"/>
								<path id="Path_91" class="st30" d="M14.37,30.08c-0.72,0-0.72,1.54,0,1.54H6.24c0.9,0,0.9-1.54,0-1.54H14.37z"/>
								<path id="Rectangle_28" class="st31" d="M9.4,30.62h2.39c0.16,0,0.29,0.13,0.29,0.29l0,0c0,0.16-0.13,0.29-0.29,0.29H9.4
									c-0.16,0-0.29-0.13-0.29-0.29l0,0C9.11,30.75,9.24,30.62,9.4,30.62z"/>
							</g>
							<g id="Group_22" transform="translate(0 131.589)">
								<path id="Path_92" class="st8" d="M19.92,13.84L16.29,13l-9.41,5.71l1.56,1.2l9.7,1.43l1.51-1.98L19.92,13.84z"/>
								<path id="Path_93" class="st3" d="M0,19.16c0,0,2.7,3.91,6.05,3.89S14.67,23,14.67,23l-3.86,5.06l1.63,1.24
									c0,0,4.81-1.1,6.25-4.56c0.86-1.97,1.29-4.11,1.28-6.26l-4.14-1.22c0,0-4.48,3.57-6.55,2.17S7.37,17.6,7.37,17.6
									S3.9,20.57,0,19.16z"/>
							</g>
							<g id="Group_24" transform="translate(36.824 79.509)">
								<g id="Group_23" transform="translate(11.333 52.112)">
									<path id="Path_94" class="st32" d="M12.59,13l-3.39,1.54L5.2,24.79h1.97l8.57-4.76v-2.49L12.59,13z"/>
									<path id="Path_95" class="st3" d="M0,29.33c0,0,4.52,1.46,7.17-0.59s6.82-5.27,6.82-5.27v6.36h2.05c0,0,3.15-3.8,2.2-7.42
										c-0.52-2.09-1.47-4.05-2.78-5.75l-4.03,1.55c0,0-1.39,5.56-3.88,5.7s-2.64-0.29-2.64-0.29S3.95,28.08,0,29.33z"/>
								</g>
								<path id="Path_96" class="st33" d="M42.74,16.73c0,0-9.63,5.44-17.71,5.12c-4.13-0.11-8.25-0.49-12.33-1.15
									c0,0,6.22,2.95,8.02,7.86s4.31,37.18,4.31,37.18l-5.62,1.66c0,0-18.17-43.43-19.31-48.83s7.53-5.4,9.82-5.56
									S42.74,16.73,42.74,16.73z"/>
							</g>
							<g id="Group_28" transform="translate(44.304 83.88)">
								<rect id="Rectangle_29" x="26.32" y="18.75" class="st23" width="1.88" height="56.72"/>
								<path id="Path_97" class="st23" d="M9.98,51.04c0-0.01,0.52-0.89,5.27-1.57c7.48-0.9,15.04-0.9,22.52,0
									c4.75,0.68,5.26,1.56,5.27,1.57c-0.01-0.02-0.01-0.05-0.01-0.07h1.88c0-1.57-1.93-2.58-6.25-3.26
									c-8.07-1.05-16.23-1.05-24.3,0c-4.32,0.69-6.25,1.69-6.25,3.26h1.88C9.99,50.99,9.98,51.02,9.98,51.04z"/>
								<g id="Group_25" transform="translate(24.015 3.611)">
									
										<rect id="Rectangle_30" x="17.99" y="12.43" transform="matrix(0.9738 -0.2272 0.2272 0.9738 -9.1333 5.4092)" class="st23" width="1.88" height="59.88"/>
									<rect id="Rectangle_31" x="22.26" y="69.75" class="st23" width="6.49" height="4.22"/>
									<rect id="Rectangle_32" x="0" y="69.75" class="st23" width="6.49" height="4.22"/>
								</g>
								<g id="Group_26" transform="translate(0 3.611)">
									
										<rect id="Rectangle_33" x="-20.11" y="41.43" transform="matrix(0.2272 -0.9738 0.9738 0.2272 -33.6667 42.3125)" class="st23" width="59.88" height="1.88"/>
									<rect id="Rectangle_34" x="0" y="69.75" class="st23" width="6.49" height="4.22"/>
								</g>
								<path id="Path_98" class="st23" d="M26.51,54.29c4.06,0.04,8.12-0.23,12.15-0.79c4.32-0.69,6.25-1.69,6.25-3.26h-1.88
									c0-0.02,0-0.05,0.01-0.07c0,0.01-0.52,0.89-5.27,1.57c-7.48,0.9-15.04,0.9-22.52,0c-4.75-0.68-5.26-1.56-5.27-1.57
									c0.01,0.02,0.01,0.05,0.01,0.07H8.11c0,1.57,1.93,2.58,6.25,3.26C18.38,54.06,22.44,54.33,26.51,54.29z"/>
								<g id="Group_27" transform="translate(3.529)">
									<path id="Path_99" class="st25" d="M47.47,16.34c0-0.94-2.44-3.1-7.69-3.07c-3.2,0.02-16.78-0.78-37.42,0.31
										C1.01,13.79,0.01,14.96,0,16.34c0,2.4,4.09,2.88,5.42,3.15s33.06,1.88,38.1,0C47.66,17.94,47.47,16.34,47.47,16.34z"/>
									<path id="Path_100" class="st3" d="M30.68,13.16c-7.65-0.17-17.68-0.15-28.32,0.42c-1.07,0.18-1.95,0.95-2.27,1.99
										C3.79,16.31,23.65,19.93,30.68,13.16z"/>
									<path id="Path_101" class="st24" d="M0,19.49c0,4.2,47.46,4.2,47.46,0v-3.15c0,4.2-47.46,4.2-47.46,0V19.49z"/>
								</g>
							</g>
							<path id="Path_102" class="st34" d="M82.86,83.78c0,0,4.31,14.96-14.06,16.1c-13.76,0.86-28.11-3.11-28.11-3.11
								s1.64,11.36-2.62,21.31s-16.2,28.82-16.2,28.82l-8.51-1.66c0,0,15.39-56,15.88-59.11s32.62-2.95,32.62-2.95L82.86,83.78z"/>
							<path id="Path_103" class="st35" d="M37.3,119.82c-4.77,10.25-15.43,27.09-15.43,27.09l-2.2-0.43
								c-1.27-7.27,8.64-19.7,7.14-33.93c-0.51-4.82,2.74-9.38,5.4-13.43s6.83-7.39,11.66-7.84c4.24-0.4,8.35,1.43,12.59,1.86
								s9.44-1.39,10.13-5.59c0.17-1.45-0.05-2.92-0.61-4.26l16.89,0.48c0,0,0.04,0.15,0.1,0.43c0.03,0.12,0.06,0.27,0.09,0.44
								c0.16,0.88,0.24,1.77,0.25,2.66c0,0.29,0,0.6-0.02,0.91s-0.05,0.64-0.08,0.97c-0.02,0.17-0.04,0.33-0.07,0.5
								s-0.06,0.34-0.09,0.51s-0.07,0.34-0.12,0.52c-0.02,0.09-0.04,0.17-0.07,0.26c-0.05,0.17-0.1,0.35-0.16,0.52
								c-0.03,0.09-0.06,0.17-0.09,0.26c-0.09,0.26-0.19,0.52-0.31,0.78c-0.08,0.17-0.16,0.35-0.24,0.52
								c-0.09,0.17-0.18,0.34-0.28,0.52s-0.2,0.34-0.31,0.51s-0.23,0.33-0.35,0.5c-0.45,0.61-0.97,1.16-1.54,1.66l0,0
								c-1.12,0.95-2.4,1.71-3.78,2.23c-0.12,0.05-0.25,0.09-0.37,0.14c-0.34,0.13-0.7,0.24-1.07,0.35c-0.68,0.2-1.38,0.37-2.08,0.5
								c-2.3,0.83-4.67,1.41-7.09,1.74c-0.22,0.03-0.45,0.05-0.67,0.07c-0.23,0.02-0.47,0.04-0.7,0.06
								c-0.43,0.03-0.86,0.04-1.28,0.04h-0.01c-0.22,0-0.44,0-0.66-0.01c-4.13-0.11-8.25-0.49-12.33-1.15l0,0
								c1.51,0.76,2.92,1.7,4.2,2.79l0.22,0.19c0.12,0.1,0.23,0.21,0.35,0.31l0.16,0.15l0.17,0.17c0.26,0.25,0.51,0.51,0.76,0.79
								c0.07,0.08,0.14,0.16,0.21,0.24c0.83,0.95,1.49,2.04,1.94,3.21c0.6,1.65,1.29,6.39,1.93,11.95c0.03,0.26,0.06,0.52,0.09,0.78
								s0.06,0.53,0.09,0.79c0.02,0.13,0.03,0.27,0.04,0.4c0.04,0.4,0.09,0.8,0.13,1.21c0.03,0.27,0.06,0.54,0.09,0.81
								c0.03,0.27,0.06,0.55,0.09,0.81c0.01,0.14,0.03,0.27,0.04,0.41c0.03,0.27,0.06,0.55,0.08,0.82c0.01,0.14,0.03,0.27,0.04,0.41
								c0.04,0.42,0.08,0.84,0.13,1.27c0.03,0.26,0.05,0.52,0.08,0.78c0.01,0.13,0.03,0.27,0.04,0.41c0.05,0.54,0.1,1.08,0.16,1.61
								c0.03,0.27,0.05,0.53,0.07,0.8c0.01,0.13,0.03,0.27,0.04,0.4c0.06,0.66,0.12,1.3,0.18,1.94l0.03,0.38
								c0.57,6.29,0.96,11.22,0.96,11.22l-5.62,1.66c0,0-0.48-1.15-1.29-3.09l-0.09-0.21c-2.94-7.06-9.91-23.92-14.26-35.17l0,0
								c-0.2,1.56-0.49,3.1-0.86,4.62c-0.37,1.5-0.84,2.98-1.42,4.42c-0.08,0.2-0.16,0.4-0.25,0.6c-0.05,0.11-0.1,0.22-0.15,0.34
								C37.75,118.82,37.54,119.28,37.3,119.82z"/>
							<path id="Path_104" class="st8" d="M50.07,26.45c0,0,2.51,2.28,2.51,4.62s2.68,6.6,6.26,4.64l0.36,4.14l7.17-1.64
								c0,0-2.52-3.27-2.39-6.86s-4.22-15.5-9.09-13.57S47.93,23.18,50.07,26.45z"/>
							<path id="Path_105" class="st21" d="M47.83,49.89c0,0,0.36-10.05,22.33-16.68c9.5-2.87,12.12,12.16,13.87,22.49
								c1.01,6.56,0.7,13.25-0.92,19.69l1.4,5.78c0.6,5.8-24.84,8.42-25.44,2.62c0,0,3.39-15.83,0-26.77
								C55.29,44.8,47.83,49.89,47.83,49.89z"/>
							<path id="Path_106" class="st8" d="M57.7,48.84c-1.78-5.89-10.67-4.02-9.81,2.07c0.01,0.11,0.03,0.21,0.05,0.32
								c1.22,6.82,4.9,20.82,4.9,20.82l-7.35-3.83c0,0-1.6-5.11-3.18-4.41c-0.92,0.39-1.59,1.19-1.81,2.17c0,0-1.7-1.87-2.52-0.59
								c-0.48,0.68-0.67,1.52-0.53,2.34c0,0-0.88-1.35-1.7-0.64s-0.58,3.34-1,4.51s-0.35,1.7,0.76,1c0.76-0.68,1.24-1.62,1.35-2.63
								c0,0-0.23,1.93,3.16,2.22l3.4,0.29c0,0,12.29,9.83,16.39,8.78C63.21,80.39,62.3,64.05,57.7,48.84z"/>
							<path id="Path_107" class="st36" d="M46.05,21.93c0,0,0.69,5.21,7.78,3.65c5.34-1.18-2.1,12.04,1.11,16.71l0,0
								c2.77-3.17,6.7-5.1,10.9-5.35c3.04-0.17,6-1.81,4.82-8.02c-0.84-4.13-2.29-8.12-4.31-11.82
								C61.47,8.23,45.88,15.58,46.05,21.93z"/>
							<path id="Path_108" class="st21" d="M47.89,50.91c0.01,0.11,0.03,0.21,0.05,0.32c1.22,6.82,4.9,20.82,4.9,20.82l-5.56-2.9
								c-1.41,1.13-2.19,2.86-2.1,4.67c3.54,2.65,11.5,8.24,14.64,7.44c3.39-0.87,2.49-17.21-2.11-32.42
								C55.91,42.96,47.03,44.83,47.89,50.91z"/>
							<path id="Path_109" class="st22" d="M45.18,73.71c1.09-0.08,2.16,0.23,3.04,0.88c0.95,0.75,1.95,1.44,2.99,2.06
								c1.07,0.62,2.4,0.59,3.44-0.08c0.74-0.73,1.15-1.72,1.15-2.75c0.31-3.46-0.77-6.88-1.98-10.13s-2.6-6.49-2.96-9.95
								c-0.25-2.4,0.05-6.45,1.95-8.48c2.27-0.11,4.3,1.38,4.89,3.57c4.6,15.21,5.51,31.54,2.11,32.42
								c-3.14,0.81-11.1-4.78-14.64-7.44C45.17,73.78,45.17,73.75,45.18,73.71z"/>
						</g>
					</g>
				</g>
			</g>
		</g>
	</g>
</g>
<g id="Group_143" transform="translate(-503.147 -252.632)">
	<path id="Rectangle_672" class="st20" d="M723.15,286.63h44c2.76,0,5,2.24,5,5v49c0,2.76-2.24,5-5,5h-44c-2.76,0-5-2.24-5-5v-49
		C718.15,288.87,720.39,286.63,723.15,286.63z"/>
	<path id="Rectangle_671" class="st20" d="M631.15,317.63h63c2.76,0,5,2.24,5,5v71c0,2.76-2.24,5-5,5h-63c-2.76,0-5-2.24-5-5v-71
		C626.15,319.87,628.39,317.63,631.15,317.63z"/>
	<path id="Rectangle_670" class="st20" d="M728.15,350.63h95c2.76,0,5,2.24,5,5v111c0,2.76-2.24,5-5,5h-95c-2.76,0-5-2.24-5-5v-111
		C723.15,352.87,725.39,350.63,728.15,350.63z"/>
	<rect id="Rectangle_3" x="643.7" y="379.57" class="st37" width="39.19" height="1.94"/>
	<rect id="Rectangle_4" x="649.25" y="385.67" class="st37" width="28.09" height="1.94"/>
	<g id="Group_1-2" transform="translate(772.062 410.764)">
		<rect id="Rectangle_6" x="0" y="13" class="st38" width="9.19" height="1.7"/>
	</g>
	<g id="Group_2" transform="translate(737.182 426.356)" class="st39">
		<rect id="Rectangle_7" x="0" y="13" class="st40" width="53.46" height="3.29"/>
		<rect id="Rectangle_8" x="0" y="28.82" class="st40" width="43.23" height="3.3"/>
		<rect id="Rectangle_9" x="0" y="20.91" class="st40" width="25.34" height="3.29"/>
	</g>
	<g id="Group_3" transform="translate(738.102 344.111)">
		<path id="Path_1-2" class="st40" d="M66.53,13v1.66h9.8v9.19h1.66V13H66.53z M0.01,23.86h1.66v-9.19h9.8V13H0.01V23.86z
			 M76.33,71.3v9.2h-9.8v1.66h11.46V71.3L76.33,71.3z M1.67,71.3H0.01v10.86h11.46V80.5h-9.8L1.67,71.3z"/>
	</g>
	<g id="Group_6" transform="translate(801.105 426.115)">
		<g id="Group_4" transform="translate(0 0)">
			<path id="Path_2" class="st40" d="M9.8,32.6c-5.41,0-9.8-4.39-9.8-9.8C0,17.38,4.39,13,9.8,13s9.8,4.39,9.8,9.8
				C19.59,28.21,15.21,32.59,9.8,32.6z M9.8,14.9c-4.36,0-7.9,3.54-7.9,7.9s3.54,7.9,7.9,7.9c4.36,0,7.9-3.54,7.9-7.9c0,0,0,0,0,0
				C17.69,18.43,14.16,14.9,9.8,14.9L9.8,14.9z"/>
		</g>
		<g id="Group_5" transform="translate(4.722 6.612)">
			<path id="Path_3" class="st40" d="M4.45,20.04L0,15.59l1.34-1.34l3.11,3.11L8.81,13l1.34,1.34L4.45,20.04z"/>
		</g>
	</g>
	<rect id="Rectangle_10" x="634.77" y="317.36" class="st41" width="57.05" height="48.95"/>
	<g id="Group_11" transform="translate(634.569 297.28)">
		<path id="Path_5" class="st42" d="M50.52,49.88c-1.55-3.77-4.66-6.67-8.52-7.96c-0.76-0.25-2.11-0.69-3.54-1.16
			c-2.57-0.83-5.39-1.74-5.39-1.74h-8.88c0,0-3.07,1.03-6.34,2.18l0,0c-3.01,1.06-6.18,2.21-7.25,2.74
			c-2.23,1.11-5.99,9.08-6.75,9.99c-1.42,2.27-2.7,4.62-3.85,7.04h9.56c1.01-1.74,1.79-3.08,1.79-3.08s0.6,1.33,1.34,3.08h30.65
			c0.48-2.04,0.79-4.61,0.79-4.61s1.64,2.23,3.43,4.61h8.83C54.17,57.42,52.21,53.71,50.52,49.88z"/>
		<g id="Group_7" transform="translate(21.377 1.558)">
			<path id="Path_6" class="st43" d="M8.31,13.07c0,0,6.94,1.09,5.89,11.96s-7.19,9.97-7.59,9.96S0.45,35.18,0,21.92
				C0,21.92-0.19,12.11,8.31,13.07z"/>
		</g>
		<g id="Group_8" transform="translate(35.275 10.154)">
			<path id="Path_7" class="st43" d="M0.4,13.36c0,0,0.76-0.81,1.04,0.01s-1.04,4.49-1.08,4.66c0,0-0.14,0.32-0.32,0.14
				C0.06,16.56,0.18,14.95,0.4,13.36z"/>
		</g>
		<g id="Group_9" transform="translate(20.48 10.004)">
			<path id="Path_8" class="st43" d="M1.08,13.37c0,0-0.74-0.83-1.04-0.01s0.94,4.51,0.99,4.68c0,0,0.13,0.32,0.32,0.15
				C1.36,16.58,1.27,14.97,1.08,13.37z"/>
		</g>
		<g id="Group_10" transform="translate(20.576)">
			<path id="Path_9" class="st44" d="M15.1,25.18l-0.99,1.33c0.03-1.12-0.02-2.25-0.13-3.37c-0.16-0.46-0.4-1.85-0.54-2.18
				s-5.96-1.96-11.11,0.48c0,0,0.23,2.1-0.27,2.28s-0.25,3.41-0.25,3.41L0.99,26.2c0,0-1.25-8.36-0.94-9.23s1.29-6.11,11.86-3
				c0,0,3.29-0.7,3.95,1.58S15.1,25.18,15.1,25.18z"/>
		</g>
		<path id="Path_10" class="st43" d="M33.93,38.83c0-0.01-0.89-0.44-0.89-0.44c-0.43-0.97-0.11-5.05-0.11-5.05s-8.84-2.25-8.59-0.53
			s-0.76,5.72-0.76,5.72l-4.54,2.25c0,0,4.83,12.98,10.39,11.3s7.65-11.77,7.65-11.77L33.93,38.83z"/>
		<path id="Path_11" class="st45" d="M24.46,34.72c0.98,1.14,2.4,1.81,3.9,1.84c1.7,0.01,3.32-0.73,4.41-2.04
			c-0.6,1.93-2.38,3.26-4.4,3.28C28.38,37.81,25.69,38.15,24.46,34.72z"/>
	</g>
	<g id="Group_68" transform="translate(605.952 361.46)">
		<g id="Group_16" transform="translate(14.434 0)">
			<g id="Group_15">
				<g id="Group_14">
					<g id="Group_13">
						<g id="Group_12">
							<path id="Path_12" class="st46" d="M13.12,14.12c0,0,5.1,2.5,3.84,9.28s-1.82,7.7-0.41,10.36s3.08,13.97,1.81,16.11
								S2.64,40.45,0.63,30.74S1.9,16.72,3.06,15.11S8.61,11.83,13.12,14.12z"/>
						</g>
					</g>
				</g>
			</g>
		</g>
		<g id="Group_17" transform="translate(24.432 144.566)">
			<path id="Path_13" class="st47" d="M1.2,27.11h1.16v-5.45c1.42,0.99,2.67,2.2,3.69,3.6c1.42,2.09,3.38,1.91,6.36,1.78
				s2.85-1.33,2.58-3.02s-3.29-2.22-4.27-2.49s-3.2-4.09-3.91-5.03c-0.59-0.77-1.09-1.61-1.49-2.49c0,0-0.56-2.27-3.31,0
				s-1.96,6.63-1.65,7.03S1.2,27.11,1.2,27.11z"/>
		</g>
		<g id="Group_18-2" transform="translate(25.802 144.974)">
			<path id="Path_14" class="st43" d="M5.65,21.11c1.02,0.67,3.69,0,3.69,0c-0.76-0.98-5.4-7.52-5.4-7.52
				C1.12,11.95,0,14.22,0,14.22C1.15,14.57,4.63,20.45,5.65,21.11z"/>
		</g>
		<g id="Group_22-2" transform="translate(61.041 49.42)">
			<g id="Group_21-2">
				<g id="Group_20-2">
					<g id="Group_19-2">
						<path id="Path_15" class="st43" d="M0.15,16.07c0,0,1.85,0.35,2.48-0.52c0.6-0.64,1.33-1.15,2.15-1.48
							c0.51-0.23,1.79-1.53,2.09-0.9s-2.01,2.24-2.43,2.68c-0.42,0.43,2.27,0.63,2.74,1.05s-0.11,4.86-1.94,4.51
							s-3.56-1.92-3.89-1.92c-0.45-0.04-0.9-0.11-1.34-0.2L0.15,16.07z"/>
					</g>
				</g>
			</g>
		</g>
		<g id="Group_26-2" transform="translate(66.363 53.138)">
			<g id="Group_25-2">
				<g id="Group_24-2">
					<g id="Group_23-2">
						<path id="Path_16" class="st43" d="M1.44,13c0,0,5.54,1.43,5.82,1.83s0.19,0.7-0.33,0.59s-5.39-1.23-5.39-1.23
							s6.27,2.79,6.57,3.07c0.18,0.16,0.03,0.75-0.26,0.71s-6.66-2.45-6.66-2.45s5.85,2.62,6.04,2.93c0.11,0.22,0.02,0.48-0.2,0.59
							c-0.11,0.05-0.24,0.06-0.35,0.02c-0.45-0.16-6.01-2.29-6.01-2.29s4.14,2.17,4.14,2.53c0,0.22-0.1,0.73-1.15,0.13
							S0,17.71,0,17.71L1.44,13z"/>
					</g>
				</g>
			</g>
		</g>
		<g id="Group_27-2" transform="translate(10.321 149.002)">
			<path id="Path_17" class="st47" d="M0.33,23.05h0.71v-4c0.84,0.93,1.47,2.02,1.84,3.21c0.58,1.91,2.65,2.48,5.81,2.39
				s3.2-1.33,2.94-3.2s-2.94-2.85-2.94-2.85c-1.52-1.73-2.91-3.57-4.18-5.49c-1.19-0.28-2.43-0.02-3.41,0.7
				c-1.5,1.21-1.03,3.95-0.99,4.66S0.33,23.05,0.33,23.05z"/>
		</g>
		<g id="Group_28-2" transform="translate(6.351 62.124)">
			<path id="Path_18" class="st48" d="M6.47,14.58c-2.33,3.19-3.96,6.83-4.78,10.69c-1.02,5.8,0.6,25.28,0.56,28.15
				s-2.71,10.01-2.18,15.41s2.64,32.3,2.64,32.3l5.77-1.14c0,0-0.33-27.42,0-29.68s1-10.54,1.14-11.47s8.47-25.46,8.47-29.64
				S15.55,7.75,6.47,14.58z"/>
		</g>
		<g id="Group_29-2" transform="translate(18.789 64.391)">
			<path id="Path_19" class="st48" d="M12.94,14.22c0,0,6.18,23.59,6.92,26.86s1.8,5.96,1.8,7.35c-0.15,2.83-0.56,5.63-1.2,8.39
				L12.6,94.37H5.13c0,0,4.17-22.52,4.28-26.93s3.51-10.68,2.84-12.55S1.51,31.48,1.51,31.48S-6.12,7.38,12.94,14.22z"/>
		</g>
		<g id="Group_30-2" transform="translate(11.413 149.109)">
			<path id="Path_20" class="st43" d="M7.59,18.49L3.41,13L0,13.7c0.62,1.57,1.49,3.02,2.58,4.31C4.54,20.2,7.59,18.49,7.59,18.49z"
				/>
		</g>
		<g id="Group_32" transform="translate(26.927 25.525)">
			<g id="Group_31-2">
				<path id="Path_21" class="st49" d="M2.24,13c1.71,0.25,3.28,1.05,4.47,2.3c1.69,1.96,3.11,4.13,4.24,6.45
					c0.5,1.1,7.57,11.3,7.94,11.53s3.92,1.42,6.28,2.21c3.63,1.22,10.92,3.87,10.92,3.87l-1.45,4.58c0,0-13.7-4.48-17.13-5.33
					C13.32,37.58,3.67,25.19,3.67,25.19S-3.53,16.76,2.24,13z"/>
			</g>
		</g>
		<g id="Group_34" transform="translate(7.031 23.564)">
			<g id="Group_33">
				<path id="Path_22" class="st50" d="M17.69,13.17c1.44,0.7,2.93,1.3,4.45,1.79c1.15,0.23,5.59,6.01,6.37,8.11s0,5.27-1.6,8.99
					s-0.09,4.95-0.82,8.67s-0.5,17.61-0.36,19.67S4.27,65.59,0.01,61.83c0,0,2.89-12.52,6.3-16.1c0.74-0.77,0.66-5.92,0.16-7.21
					S0.27,27.66,0.27,27.66s-0.42-9.72,2.06-11.65c2.16-1.67,8.03-2.27,9.08-2.64C13.48,12.94,15.61,12.87,17.69,13.17z"/>
			</g>
		</g>
		<g id="Group_36" transform="translate(18.448 15.409)">
			<g id="Group_35">
				<path id="Path_23" class="st43" d="M7.85,17.52c0,0-0.1,0.91-0.21,2.14c-0.04,0.49-0.09,1.02-0.14,1.57
					c-0.14,1.43-0.2,2.88-0.17,4.32c0,0-3.43,3.44-7.33-4.01c1.02-2.29,1.16-4.87,0.41-7.26C-0.83,10.1,7.85,17.52,7.85,17.52z"/>
			</g>
		</g>
		<g id="Group_37-2" transform="translate(34.275 35.164)">
			<path id="Path_24" class="st51" d="M1.63,21.83c0,0,0.83-5.49-0.05-8.83C1.44,15.39,0.91,17.74,0,19.95L1.63,21.83z"/>
		</g>
		<g id="Group_38-2" transform="translate(15.812 23.857)">
			<path id="Path_25" class="st43" d="M0,13.61c0,0,2.36,6.97,8.84,6.46s3.07-5.89,3.07-5.89c-0.66-0.39-1.35-0.73-2.07-1.01
				C9.39,13.09,2.68,13,2.68,13L0,13.61z"/>
		</g>
		<g id="Group_39-2" transform="translate(27.722 25.043)">
			<path id="Path_26" class="st49" d="M0,13c2.08,6.11,3.23,12.5,3.39,18.95c0,9.57,0.27,25.15,1.46,30.07s4.56,20.14,4.56,20.14
				l2.64-1.37c0,0-6.35-24.29-6.83-26.04s0.36-20.25,0.82-21.8s2.39-8.44,2.09-10.36c-0.38-2.41-2.64-5.98-6.28-9.05L0,13z"/>
		</g>
		<g id="Group_40-2" transform="translate(2.773 24.178)">
			<path id="Path_27" class="st49" d="M14.32,13c1.47,5.04,2.53,10.19,3.18,15.4c1.07,8.65-3.28,48.8-6.2,57.91L0,84.48
				c0,0,2.43-28.38,5.73-33.54s4.35-9.73,0.79-20.51s1.56-16.12,1.56-16.12S13.33,13.11,14.32,13z"/>
		</g>
		<g id="Group_41-2" transform="translate(0.35 43.678)">
			<path id="Path_28" class="st52" d="M28.93,22.14l-13.7,23.73L0,37.08L13.11,13L28.93,22.14z"/>
		</g>
		<g id="Group_42-2" transform="translate(1.935 45.517)">
			<path id="Path_29" class="st53" d="M25.7,21.12L13.53,42.19L0,34.38L11.64,13L25.7,21.12z"/>
		</g>
		<g id="Group_43-2" transform="translate(17.46 47.101)">
			<path id="Path_30" class="st52" d="M5.68,17.64l0.85-1.48L1.07,13L0,14.36L5.68,17.64z"/>
		</g>
		<g id="Group_49" transform="translate(16.207 61.2)">
			<g id="Group_48">
				<g id="Group_47">
					<g id="Group_46">
						<g id="Group_45">
							<g id="Group_44-2">
								<path id="Path_31" class="st43" d="M6.28,20.38c-0.3,0.01-0.61-0.04-0.9-0.13c0,0-0.48-0.28-0.83-0.45
									c-0.09-0.05-0.18-0.09-0.28-0.12c-0.54-0.13-1.06-0.35-1.53-0.65c-0.97-0.91-1.89-1.88-2.75-2.9l1.01-1.54L1.75,13
									c1.72,0.08,3.43,0.29,5.11,0.62c0.06,0.03,0.11,0.06,0.17,0.1c0.35,0.29,0.67,0.62,0.95,0.97c0.09,0.07,0.9,0.87,0.87,1.21
									c-0.01,0.38-0.21,0.74-0.54,0.94c-0.06,0.49-0.26,0.96-0.57,1.34c-0.06,0.51-0.35,0.96-0.79,1.22
									C6.96,19.4,6.78,20.25,6.28,20.38z"/>
							</g>
						</g>
					</g>
				</g>
			</g>
		</g>
		<g id="Group_51" transform="translate(0 25.385)">
			<g id="Group_50">
				<path id="Path_32" class="st49" d="M13.21,13.14c0,0-4.16-1.19-6.55,3.39c-1.54,2.69-2.46,5.69-2.69,8.78
					c-0.3,2.11-1.66,7.89-1.8,8.48s-3.21,7.7-1.8,10.19s15.82,9.85,15.73,10.4s2.49-5.56,2.49-5.56s-5.83-3.25-6.78-4.25
					c-1.55-1.62-4.82-3.38-4.15-5.39c0.79-2.37,3.16-10.35,3.71-11.52S16.71,14.63,13.21,13.14z"/>
			</g>
		</g>
		<g id="Group_56" transform="translate(17.043 1.657)">
			<g id="Group_55">
				<g id="Group_54">
					<g id="Group_53">
						<g id="Group_52">
							<path id="Path_33" class="st43" d="M9.77,13.22c0,0,7.41,2.33,3.39,15.11s-14.14-1.48-13.08-9.27S9.77,13.22,9.77,13.22z"/>
						</g>
					</g>
				</g>
			</g>
		</g>
		<g id="Group_61" transform="translate(16.459 0.63)">
			<g id="Group_60">
				<g id="Group_59">
					<g id="Group_58">
						<g id="Group_57">
							<path id="Path_34" class="st46" d="M14.5,21.7c-2.75,2.39-6.21,3.82-9.84,4.06c0,0-2.37,2.78-2.55,3.86
								c0,0-5.5-9.37,1.26-14.98S16.98,19.39,14.5,21.7z"/>
						</g>
					</g>
				</g>
			</g>
		</g>
		<g id="Group_66-2" transform="translate(18.619 11.092)">
			<g id="Group_65">
				<g id="Group_64">
					<g id="Group_63">
						<g id="Group_62">
							<path id="Path_35" class="st54" d="M2.57,15.56c-0.05-0.93-0.62-3.05-2-2.46s0.08,4.9,1,4.64
								C1.57,17.74,2.68,17.76,2.57,15.56z"/>
						</g>
					</g>
				</g>
			</g>
		</g>
		<g id="Group_67" transform="translate(20.498 18.578)">
			<path id="Path_36" class="st45" d="M5.59,16.49c-0.04,0.49-0.09,1.02-0.14,1.57c0,0-3.27-0.2-5.45-5.06
				C0.14,13.21,2.54,16.73,5.59,16.49z"/>
		</g>
	</g>
	<g id="Group_74" transform="translate(529.871 401.039)">
		<g id="Group_69" transform="translate(32.603 22.464)">
			
				<linearGradient id="Path_37_00000103250794752594315610000005498299662066201509_" gradientUnits="userSpaceOnUse" x1="-788.3651" y1="510.4628" x2="-787.3651" y2="510.4628" gradientTransform="matrix(20.441 0 0 -76.9259 15406.6543 39319.2734)">
				<stop  offset="0" style="stop-color:#3077A2"/>
				<stop  offset="1" style="stop-color:#59BCAF"/>
			</linearGradient>
			<path id="Path_37" style="fill:url(#Path_37_00000103250794752594315610000005498299662066201509_);" d="M0.45,89.93
				c4.75-3.34,10.31-26.62,10.64-40.48c0.17-7.1,2.27-10.06,4.12-12.67c1.77-2.5,3.3-4.65,2.41-9.6c-1.7-9.46,2.77-13.54,2.82-13.58
				L19.92,13c-0.2,0.17-4.86,4.39-3.07,14.31c0.83,4.62-0.54,6.56-2.28,9.01c-1.82,2.57-4.09,5.77-4.27,13.11
				C9.95,64.3,4.27,86.28,0,89.28L0.45,89.93z"/>
		</g>
		<g id="Group_70" transform="translate(0 54.485)">
			
				<linearGradient id="Path_38_00000018215259484383940170000004299897175615181723_" gradientUnits="userSpaceOnUse" x1="-742.4613" y1="477.0343" x2="-741.4613" y2="477.0343" gradientTransform="matrix(37.1552 0 0 -46.6292 26926.5352 22280.0195)">
				<stop  offset="0" style="stop-color:#3077A2"/>
				<stop  offset="1" style="stop-color:#59BCAF"/>
			</linearGradient>
			<path id="Path_38" style="fill:url(#Path_38_00000018215259484383940170000004299897175615181723_);" d="M23.1,51.11
				c-0.45-1.02-0.91-2.07-1.44-3.18c-2.71-5.73-5.12-6.67-9.1-8.23c-0.97-0.38-2.08-0.81-3.29-1.36c-5.7-2.56-4.6-6.34-3.62-9.67
				c0.14-0.47,0.27-0.93,0.39-1.39c0.5-1.96-0.46-2.94-1.92-4.43c-1.42-1.34-2.6-2.91-3.47-4.66c-1.14-2.38-0.56-3.66,0.13-4.31
				c1.45-1.37,4.78-1.12,7.93,0.6c0.99,0.62,1.88,1.38,2.64,2.27c2.01,2.1,4.51,4.72,10.83,4.75c3.6,0.02,5.58,0.52,6.6,1.66
				c1.16,1.3,0.94,3.26,0.64,5.96c-0.1,0.94-0.22,1.99-0.3,3.14c-0.19,4.24,1.1,8.41,3.64,11.8c2.41,2.87,5.38,8.82,4.09,12.48
				c-0.55,1.55-1.93,2.66-3.57,2.87c-0.66,0.14-1.33,0.21-2.01,0.22C26.85,59.63,25.24,55.96,23.1,51.11z M8.33,15.17
				c-2.81-1.54-5.83-1.85-7.02-0.72c-0.9,0.85-0.48,2.32,0.04,3.4c0.84,1.67,1.96,3.17,3.33,4.45c1.53,1.56,2.73,2.79,2.12,5.18
				c-0.12,0.47-0.26,0.94-0.4,1.42c-0.97,3.32-1.89,6.45,3.19,8.74c1.19,0.54,2.29,0.96,3.25,1.34c4.02,1.58,6.67,2.62,9.52,8.63
				c0.53,1.12,1,2.17,1.45,3.2c2.46,5.57,3.94,8.93,9.31,7.84c1.36-0.16,2.51-1.08,2.98-2.36c1.13-3.23-1.57-8.88-3.96-11.71
				c-2.7-3.54-4.05-7.91-3.82-12.35c0.07-1.16,0.19-2.23,0.3-3.18c0.28-2.5,0.48-4.31-0.45-5.35c-0.85-0.95-2.7-1.39-6.02-1.4
				c-6.66-0.03-9.28-2.78-11.39-4.99C10.07,16.48,9.25,15.76,8.33,15.17L8.33,15.17z"/>
		</g>
		<g id="Group_71" transform="translate(6.093 60.758)">
			
				<linearGradient id="Path_39_00000083788008799464060180000015687144057751298491_" gradientUnits="userSpaceOnUse" x1="-753.0986" y1="470.6234" x2="-752.0986" y2="470.6234" gradientTransform="matrix(27.888 0 0 -44.896 20339.7734 21164.5469)">
				<stop  offset="0" style="stop-color:#3077A2"/>
				<stop  offset="1" style="stop-color:#59BCAF"/>
			</linearGradient>
			<path id="Path_39" style="fill:url(#Path_39_00000083788008799464060180000015687144057751298491_);" d="M27.11,57.89l0.78-0.04
				c-0.04-0.74-1.03-18.11-8-23.19c-7.65-5.58-10.07-11.57-11.21-15.6c-1.35-4.74-8.25-6.01-8.54-6.06l-0.14,0.77
				c0.07,0.01,6.7,1.23,7.92,5.5c1.18,4.14,3.66,10.29,11.51,16.02C26.1,40.16,27.1,57.71,27.11,57.89z"/>
		</g>
		<g id="Group_72" transform="translate(25.816 0)">
			
				<linearGradient id="Path_40_00000125579970696124316010000016855129039352222096_" gradientUnits="userSpaceOnUse" x1="-768.1174" y1="533.5745" x2="-767.1174" y2="533.5745" gradientTransform="matrix(41.8925 0 0 -109.7366 31462.002 58620.4961)">
				<stop  offset="0" style="stop-color:#3077A2"/>
				<stop  offset="1" style="stop-color:#59BCAF"/>
			</linearGradient>
			<path id="Path_40" style="fill:url(#Path_40_00000125579970696124316010000016855129039352222096_);" d="M6.06,122.56
				c-1.64-0.82-1.58-4.1-1.49-9.08c0.11-6.29,0.27-14.9-3.02-22.81c-3.5-8.41-0.38-10.87,2.64-13.25c3.38-2.66,6.57-5.18,0.45-16.53
				c-2.81-5.21-3.7-8.74-2.81-11.1c0.88-2.33,3.37-3.24,5.99-4.2c4.53-1.66,9.68-3.54,9.01-13.14c-0.2-2.94,0.14-4.75,1.09-5.7
				c1.03-1.02,2.54-0.91,4.3-0.79c2.65,0.19,5.65,0.41,8.27-3c0.27-0.85,2.77-8.46,5.76-9.77c0.58-0.27,1.25-0.27,1.83,0.01l0,0
				c2.07,0.99,3.26,2.16,3.66,3.58c0.7,2.47-1.11,5.26-3.21,8.49c-3.3,5.08-7.03,10.83-3.16,17.68c5.12,9.05,2.42,12.22-1.33,16.61
				c-2.72,2.88-4.83,6.28-6.2,10c-1.31,3.73,0.92,7.3,3.08,10.74c2.71,4.32,5.5,8.79-0.39,12.66c-9.74,6.41-19.36,27.33-19.46,27.54
				l-0.04,0.09l-0.08,0.06c-1.79,1.41-3.1,2.08-4.09,2.08C6.59,122.74,6.31,122.68,6.06,122.56z M30.09,92.32
				c5.25-3.45,2.89-7.22,0.15-11.59c-2.15-3.43-4.59-7.32-3.16-11.42c1.4-3.81,3.56-7.3,6.35-10.25c3.67-4.3,6.09-7.14,1.24-15.71
				c-4.11-7.26-0.07-13.49,3.18-18.49c1.99-3.07,3.72-5.72,3.12-7.85c-0.34-1.19-1.4-2.2-3.25-3.08l0,0c-0.37-0.18-0.81-0.18-1.18,0
				c-2.78,1.21-5.32,9.27-5.35,9.35l-0.02,0.06l-0.04,0.05c-2.88,3.81-6.27,3.56-8.99,3.36c-1.63-0.12-2.91-0.21-3.69,0.56
				s-1.04,2.42-0.86,5.08c0.7,10.19-4.97,12.26-9.53,13.93c-2.56,0.94-4.77,1.75-5.53,3.74c-0.81,2.13,0.07,5.45,2.77,10.45
				c6.43,11.93,2.83,14.77-0.65,17.52C1.76,80.33-1,82.5,2.27,90.36c3.35,8.07,3.2,16.77,3.08,23.13c-0.08,4.34-0.14,7.77,1.06,8.36
				c0.7,0.35,2.04-0.24,3.98-1.75C11.17,118.41,20.38,98.71,30.09,92.32L30.09,92.32z"/>
		</g>
		
			<linearGradient id="Path_41_00000138533059456408468110000013685619661658716060_" gradientUnits="userSpaceOnUse" x1="-723.0904" y1="532.6879" x2="-723.8404" y2="533.5408" gradientTransform="matrix(32.4845 0 0 -85.7169 23531.9727 45773.918)">
			<stop  offset="0" style="stop-color:#3077A2"/>
			<stop  offset="1" style="stop-color:#59BCAF"/>
		</linearGradient>
		<path id="Path_41" style="fill:url(#Path_41_00000138533059456408468110000013685619661658716060_);" d="M16.5,31.37
			c4.96-1.7,3.93,7.86,6.02,14.93s23.3,3.08,14.4,20.79s11.26,5.92,5.24,21.37s-0.52,31.97-7.07,27.77S31.41,92.57,24.6,90.26
			s-7.92-5.01-1.18-11.29S5.76,66.44,11.78,53.75S10.77,33.34,16.5,31.37z"/>
		<g id="Group_73" transform="translate(19.746 40.26)">
			<path id="Path_42" class="st20" d="M13.06,74.95c0.62-2.65,5.95-25.92,0.98-28.73c-4.38-2.48-4.27-12.12-3.59-21.23
				C11.05,16.92,0.7,13.16,0.26,13L0,13.74c0.1,0.04,10.23,3.72,9.67,11.19c-0.7,9.35-0.78,19.28,3.98,21.97
				c3.77,2.14,0.3,20.84-1.36,27.87L13.06,74.95z"/>
		</g>
		
			<linearGradient id="Path_43_00000169528831128900651850000009116131166114948497_" gradientUnits="userSpaceOnUse" x1="-723.5729" y1="527.3606" x2="-723.1669" y2="529.3176" gradientTransform="matrix(29.975 0 0 -26.854 21713.043 14323.1064)">
			<stop  offset="0" style="stop-color:#C9C4C2"/>
			<stop  offset="1" style="stop-color:#FFF6DF"/>
		</linearGradient>
		<path id="Path_43" style="fill:url(#Path_43_00000169528831128900651850000009116131166114948497_);" d="M51.51,106.93
			l-7.08,26.85H28.62l-7.08-26.85H51.51z"/>
		
			<linearGradient id="Path_44_00000175310411341367949440000004896431123518517430_" gradientUnits="userSpaceOnUse" x1="-723.7574" y1="528.8879" x2="-722.7574" y2="528.8879" gradientTransform="matrix(29.975 0 0 -26.855 21713.043 14323.6299)">
			<stop  offset="0" style="stop-color:#C9C4C2"/>
			<stop  offset="1" style="stop-color:#FFF6DF"/>
		</linearGradient>
		<path id="Path_44" style="fill:url(#Path_44_00000175310411341367949440000004896431123518517430_);" d="M51.51,106.93
			c0,0-15.58,2.93-15.58,26.85h-7.31l-7.08-26.85H51.51z"/>
	</g>
	<g id="Group_75" transform="translate(742.32 315.266)">
		<rect id="Rectangle_12" x="0" y="13" class="st38" width="4.93" height="0.91"/>
	</g>
	<g id="Group_91" transform="translate(732.945 263.873)">
		<g id="Group_78" transform="translate(5.411 0)">
			<g id="Group_77">
				<g id="Group_76">
					<path id="Path_45" class="st62" d="M10.89,14.07c0,0,3.97,2.18,2.71,7.55s-1.74,6.07-0.72,8.24s1.93,11.25,0.83,12.92
						S1.54,34.67,0.31,26.86s1.54-11.14,2.52-12.37S7.39,12.08,10.89,14.07z"/>
				</g>
			</g>
		</g>
		<g id="Group_79" transform="translate(12.321 20)">
			<path id="Path_46" class="st63" d="M11.44,38.42H7.19c-0.21-2.1-0.4-3.56-0.36-3.78c0.06-0.36-4.23-11.63-4.63-12.56
				s-1.98-3.43-2.19-5.78S2.87,13,2.87,13c4.14,0.74,5.55,6.47,5.55,6.47s1.74,11.62,2.62,14.89C11.3,35.7,11.44,37.06,11.44,38.42z
				"/>
		</g>
		<path id="Path_47" class="st64" d="M21.62,42.27l-6.33,2.67c0,0-5.82-14.45-0.94-12.84S21.4,36.74,21.62,42.27z"/>
		<g id="Group_80" transform="translate(1.996 18.149)">
			<path id="Path_48" class="st64" d="M18.21,30.92c-0.19,1.43-0.94,6.52-0.77,7.89c0.03,0.23,0.12,0.75,0.26,1.46H2.43
				c0.41-1.45,0.78-2.73,1-3.48c0.74-2.46,0.03-3.12-0.34-5.09c-0.15-0.77-0.66-2.23-1.22-3.89c-0.19-0.55-0.38-1.13-0.56-1.7
				c-0.54-1.78-0.93-3.61-1.18-5.45c-0.92-5.88,3.6-6.44,3.6-6.44C5.4,13.91,8.34,13,8.34,13l4.6,0.96
				c0.38,0.17,0.74,0.38,1.07,0.64l0,0c0.37,0.27,0.71,0.58,1.03,0.91c0.93,1.14,1.76,2.35,2.5,3.61c0.3,0.5,0.61,1.01,0.9,1.51
				c0.92,1.29,1.46,2.81,1.58,4.39C20,26.46,18.4,29.49,18.21,30.92z"/>
		</g>
		<path id="Path_49" class="st63" d="M14.93,32.11c0,0,2.88,4.92,1.81,5.29s-6.71-0.88-8.92-5.52C10.11,30.91,12.71,31,14.93,32.11z
			"/>
		<path id="Path_50" class="st63" d="M14.52,34.35c0,0-2.56,1.08-4.87-2.48c0,0,0.62-4.05-0.69-6.39s5.75,2.8,5.75,2.8
			s-0.11,0.48-0.23,1.2c-0.06,0.36-0.12,0.79-0.17,1.24c-0.04,0.38-0.07,0.77-0.08,1.16C14.15,32.72,14.25,33.56,14.52,34.35z"/>
		<path id="Path_51" class="st65" d="M8.17,39.86c-0.53,2.71-4.3,6.1-4.3,6.1c-0.19-0.55-0.38-1.13-0.56-1.7
			C5.11,43.02,6.75,41.54,8.17,39.86z"/>
		<g id="Group_81" transform="translate(0.566 20.177)">
			<path id="Path_52" class="st63" d="M6.65,21.84c-0.24,0.99-1.34,10.98-1.22,11.32c0.07,0.2,0.6,2.51,1.14,5.08H1.64
				c-0.45-1.22-0.69-2.51-0.73-3.81c0.31-3.37-0.83-14.12-0.83-14.12s-1.02-6.5,4.37-7.31c0,0,3.19,0.42,3.38,2.77
				S6.89,20.86,6.65,21.84z"/>
		</g>
		<path id="Path_53" class="st64" d="M0.24,43.4l6.7,1.56c0,0,5.31-10.31,0.53-12.2C2.43,30.78-0.96,37.77,0.24,43.4z"/>
		<g id="Group_84" transform="translate(7.618 1.378)">
			<g id="Group_83">
				<g id="Group_82">
					<path id="Path_54" class="st63" d="M8.07,13.27c0,0,5.82,2.14,2.13,12.18s-11.22-1.71-10.08-7.88S8.07,13.27,8.07,13.27z"/>
				</g>
			</g>
		</g>
		<g id="Group_87" transform="translate(7.404 0.544)">
			<g id="Group_86">
				<g id="Group_85">
					<path id="Path_55" class="st62" d="M11.3,20.21c-2.28,1.8-5.09,2.81-8,2.87c0,0-1.15,2.81-1.34,3.67c0,0-4.87-8.36,0.73-12.58
						S13.37,18.45,11.3,20.21z"/>
				</g>
			</g>
		</g>
		<g id="Group_90" transform="translate(9.363 9.123)">
			<g id="Group_89">
				<g id="Group_88">
					<path id="Path_56" class="st63" d="M2.01,15.1c0-0.74-0.38-2.45-1.5-2.03s-0.12,3.91,0.62,3.74C1.13,16.8,2.02,16.86,2.01,15.1
						z"/>
				</g>
			</g>
		</g>
		<path id="Path_57" class="st66" d="M14.22,31.71c-1.72-0.54-3.11-1.8-3.82-3.45c2.22,2.87,3.9,2.46,3.9,2.46
			C14.26,31.1,14.26,31.34,14.22,31.71z"/>
	</g>
	<g id="Group_92" transform="translate(724.089 279.988)">
		<path id="Path_58" class="st40" d="M35.71,13v0.89h5.26v4.94h0.89V13H35.71z M0,18.83h0.89v-4.94h5.26V13H0V18.83z M40.97,44.3
			v4.94h-5.26v0.89h6.15V44.3L40.97,44.3z M0.89,44.3H0v5.83h6.15v-0.89H0.89V44.3z"/>
	</g>
	<g id="Group_93" transform="translate(660.002 357.109)">
		<rect id="Rectangle_13" x="0" y="13" class="st38" width="6.59" height="1.22"/>
	</g>
	<g id="Group_94" transform="translate(635.336 309.988)">
		<path id="Path_59" class="st40" d="M47.7,13v1.19h7.03v6.59h1.19V13H47.7z M0,20.79H1.2v-6.59h7.02V13H0L0,20.79z M54.73,54.8v6.6
			H47.7v1.19h8.22v-7.79L54.73,54.8z M1.2,54.8H0v7.79h8.22V61.4H1.2L1.2,54.8z"/>
	</g>
	<g id="Group_110" transform="translate(738.211 321.269)">
		<g id="Group_95" transform="translate(1.804 37.593)">
			<path id="Path_60" class="st67" d="M70.44,55.79h-5.57c-0.1-0.22-0.18-0.42-0.25-0.57c-1.65-3.9-10.18-12.86-10.18-12.86v0.02
				c0,0,0,0.01,0,0.01v0.01c0,0.01-0.01,0.02-0.01,0.04s-0.01,0.04-0.02,0.07c-0.01,0.02-0.01,0.03-0.01,0.05
				c0,0.01-0.01,0.02-0.01,0.04c-0.35,1.3-2.07,7.8-2.92,13.19h-37.7c-0.09-0.5-0.19-0.97-0.31-1.42c-0.33-1.28-0.57-2.59-0.73-3.9
				c0-0.06-0.01-0.12-0.02-0.18c-0.03-0.23-0.05-0.46-0.07-0.68c-0.2-2.07-0.22-4.16-0.06-6.24c-0.11,0.23-0.87,3.02-1.87,6.47
				c-0.55,1.89-1.17,3.98-1.79,5.95h-8.9l11.17-32.23c0.25-0.19,3.15-1.6,5.26-2.6c2.16-1.03,4.76-2.54,7.11-3.83
				c1.2-0.66,2.34-1.26,3.32-1.71l0.15-0.07l0,0c1.62-0.74,2.71-1.23,2.71-1.23l0,0l0.7-0.07c2.27-0.22,9.31-0.88,11.67-1.01
				c0.19-0.02,0.36-0.02,0.48-0.03c0.08,0,0.16,0,0.24,0c1.24,0.34,2.47,0.76,3.66,1.25c0.07,0.02,0.15,0.05,0.22,0.08l0.27,0.1
				c0.17,0.06,0.33,0.13,0.5,0.19c0.34,0.14,0.69,0.27,1.05,0.41c0.12,0.05,0.25,0.1,0.37,0.15c3.17,1.17,6.25,2.55,9.23,4.14
				c0.69,0.49,2.83,4.52,5.3,9.51C66.21,37.7,68.55,46.69,70.44,55.79z"/>
		</g>
		<g id="Group_96" transform="translate(31.38 24.934)">
			<path id="Path_61" class="st43" d="M13.19,24.57c-0.1,5.07-9.91,7.84-9.91,7.84s-4.1-5.15-3.12-5.64
				c0.39-0.19,0.54-0.96,0.59-1.82c0.03-0.77,0.01-1.54-0.06-2.3c-0.03-0.36-0.06-0.59-0.06-0.59s1.4-1.48,3.19-3.24
				c3.12-3.08,7.4-7.03,7.41-5.46c0,0.1-0.01,0.2-0.04,0.3C10.43,17.19,13.19,24.57,13.19,24.57z"/>
		</g>
		<g id="Group_97" transform="translate(31.09 29.075)">
			<path id="Path_62" class="st45" d="M9.7,13L9.7,13c-0.02,0.03-0.44,0.65-1.15,1.55c-1.51,1.9-4.34,5.01-7.52,6.26
				c0.03-0.77,0.01-1.54-0.06-2.3C0.65,18.5,0.32,18.46,0,18.39c0.65-1.08,1.36-2.13,2.13-3.12l1.97-0.59L9.7,13z"/>
		</g>
		<g id="Group_98" transform="translate(24.472 8.325)">
			<path id="Path_63" class="st43" d="M18.2,30.03c-0.85,1.85-1.66,3.18-1.88,3.72l0,0c-0.3,0.57-0.69,1.09-1.15,1.55
				c-1.62,1.74-4.62,4.04-7.58,3.96c-0.33-0.01-0.65-0.05-0.98-0.12c-1.43-0.21-2.68-1.07-3.38-2.33
				c-6.12-11.99-1.69-21.79-1.69-21.79s16.74-4.73,19.36,0.3C22.75,18.86,20.2,25.69,18.2,30.03z"/>
		</g>
		<g id="Group_99" transform="translate(23.978 0)">
			<path id="Path_64" class="st68" d="M2.05,23.34c0,0-1.55-0.09-1.94-3.03c-0.38-2.91,0.39-3.72,0.39-3.72s6.91-2.89,9.39-3.27
				s8.58-0.74,10.01,0.9c0,0,3.48-0.81,4.42,4.96c1.5,9.15-5.12,18.04-5.12,18.04s0.06-5.98-1.26-6.77s-2.46,1.09-2.46,1.09
				l-2.7,0.48c0,0,4.1-8.85-0.82-9.17S4.86,23.85,2.05,23.34z"/>
		</g>
		<g id="Group_100" transform="translate(39.452 13.634)">
			<path id="Path_65" class="st43" d="M0.09,15.52c0.26-2.63,5.02-3.64,4.7-0.88s-2.67,5.41-3.75,5.32S-0.11,17.53,0.09,15.52z"/>
		</g>
		<g id="Group_101" transform="translate(35.329 38.848)">
			<path id="Path_66" class="st69" d="M32.09,27.82c-1.55-4.97-2.9-8.9-3.49-9.33c-1.04-0.75-9.31-3.02-13.23-4.56
				c-0.13-0.05-0.25-0.1-0.37-0.15c-0.35-0.14-0.71-0.28-1.05-0.41c-0.17-0.07-0.34-0.13-0.5-0.19l-0.27-0.1
				c-0.07-0.03-0.15-0.06-0.22-0.08c0,0-0.01,0.02-0.02,0.02c-1.54,1.77-2.99,3.61-4.33,5.54c-4.05,5.76-9.34,15.1-8.52,23.72
				c0.26,2.76,0.58,6.74,1.12,11.19c0.04,0.35,0.08,0.71,0.13,1.07h18.29c0.22-4.66,0.62-10.81,1.22-13.19
				c0-0.01,0.01-0.02,0.01-0.04c0-0.02,0-0.03,0.01-0.05c0-0.02,0.01-0.05,0.02-0.07s0.01-0.02,0.01-0.04v-0.01c0,0,0-0.01,0-0.01
				c0,0,4.43,6.92,4.66,13.41h11.51C36.52,48.5,34.76,36.36,32.09,27.82z"/>
		</g>
		<g id="Group_102" transform="translate(0 40.007)">
			<path id="Path_67" class="st69" d="M28.75,13.06c-1.37,5.29-2.43,10.66-3.17,16.08l0,0c-0.06,0.38-0.12,0.78-0.18,1.18
				c0,0.04-0.02,0.09-0.02,0.14c-0.04,0.26-0.08,0.53-0.12,0.8c0,0.03-0.01,0.06-0.01,0.1c-0.03,0.18-0.06,0.36-0.08,0.55
				c-0.07,0.45-0.14,0.92-0.2,1.39c-0.67,4.68-1.56,12.13-2.47,20.07h-7.23c-0.4-1.84-0.64-3.71-0.73-5.59
				c-0.01,0.03-0.03,0.06-0.03,0.09c-0.58,1.6-1.21,3.34-1.86,5.03l-0.18,0.47H0l12.42-32.48c0.25-0.19,3.44-1.92,5.56-2.92
				c2.21-1.05,5-2.35,7.47-3.49c1.18-0.55,2.29-1.06,3.23-1.49L28.75,13.06z"/>
		</g>
		<g id="Group_103" transform="translate(35.33 38.848)">
			<path id="Path_68" class="st70" d="M10.24,25.57l-4.78,2.7l2.04,2.08L3.02,54.54H1.33c-0.62-4.89-0.98-9.28-1.25-12.26
				C-1.17,28.95,12.13,13.92,12.96,13c0.64,0.24,1.33,0.51,2.04,0.79L10.24,25.57z"/>
		</g>
		<g id="Group_104" transform="translate(20.863 39.939)">
			<path id="Path_69" class="st70" d="M7.96,13c0,0-1.78,5.82-3.86,20.37C3.43,38.05,2.54,45.5,1.63,53.44h-0.7L0,30.59l2.27-2.46
				L0.25,25.6l4.33-11.05c1.18-0.55,2.29-1.06,3.24-1.49L7.96,13z"/>
		</g>
		<g id="Group_105" transform="translate(34.656 36.501)">
			<path id="Path_70" class="st71" d="M13.87,15.4L9.91,13c0,0-0.11,2.17-9.91,7.84l2.78,7.84L13.87,15.4z"/>
		</g>
		<g id="Group_106" transform="translate(28.827 37.595)">
			<path id="Path_71" class="st71" d="M3.22,13c0,0,0.16,2.34,2.61,6.75L0.4,26.83L0,15.34L3.22,13z"/>
		</g>
		<g id="Group_107" transform="translate(31.365 44.342)">
			<path id="Path_72" class="st72" d="M3.31,13.01c0,0,1.05,4.21,0.67,5.39c0,0-2.32,0.84-3.98-0.21
				C0.81,16.29,1.92,14.54,3.31,13.01z"/>
		</g>
		<g id="Group_108" transform="translate(27.78 48.552)">
			<path id="Path_73" class="st72" d="M5.61,23.11c-0.98,7.2-1.21,14.47-0.7,21.72H0.27c-0.06-0.92-0.12-1.87-0.18-2.87
				c-0.37-9.65,1.14-19.28,4.43-28.36L6.89,13C6.89,13,6.13,19.62,5.61,23.11z"/>
		</g>
		<g id="Group_109" transform="translate(12.477 59.067)">
			<path id="Path_74" class="st73" d="M2.2,21.93c-0.18,3.59-0.15,6.79-0.15,6.79l0,0c0,0.02,0,0.11-0.01,0.28
				c-0.01-0.06-0.01-0.12-0.02-0.18c-0.57,1.6-1.21,3.34-1.85,5.03c-0.14-1.82-0.19-3.65-0.15-5.48C0.27,18.28,3.44,13,3.44,13
				C2.72,14.76,2.37,18.53,2.2,21.93z"/>
		</g>
	</g>
	<g id="Group_133" transform="translate(679.79 361.46)">
		<g id="Group_111" transform="translate(0 18.694)">
			<path id="Path_75" class="st74" d="M29.72,34.54l-14.83,8.15L0,19.26L18.01,13L29.72,34.54z"/>
		</g>
		<g id="Group_112" transform="translate(0.986 19.386)">
			<path id="Path_76" class="st20" d="M27.79,33.14l-13.87,7.62L0,18.85L16.84,13L27.79,33.14z"/>
		</g>
		<g id="Group_113" transform="translate(16.276 30.56)">
			<path id="Path_77-2" class="st43" d="M17.58,17.87c0,0-2.58-1.23-3.71-1.88c-1.13-0.65-4.05-1.53-4.28-1.74s-8.64-0.73-9.15-1.17
				s-1.01,1.03,1.17,1.51s5.21,1.64,5.37,2.49s-2.24,1.05-2.48,1.75s0.07,0.54,0.41,0.69s2.86-1.24,3.96-0.85s2.8-0.15,3.64,0.14
				s4.97,1.68,4.97,1.68L17.58,17.87z"/>
		</g>
		<g id="Group_114" transform="translate(2.814 30.584)">
			<path id="Path_78-2" class="st43" d="M11.36,27.86c0,0-2.17-1.95-3.22-2.77s-3.02-3.22-3.31-3.36s-4.05-7.86-4.66-8.17
				s0.58-1.35,1.88,0.52s3.58,4.27,4.44,4.09s0.12-2.52,0.69-3.02s0.54-0.15,0.81,0.12c0.28,0.27-0.06,3.18,0.74,4.06
				s0.94,2.69,1.55,3.38s3.51,4.03,3.51,4.03L11.36,27.86z"/>
		</g>
		<g id="Group_115" transform="translate(60.865 149.33)">
			<path id="Path_79-2" class="st75" d="M0,13.42c0,0,0.47,3.26,0.53,3.74s5.22-0.29,5.22-0.29L6.16,13C6.16,13,0.64,12.96,0,13.42z
				"/>
		</g>
		<g id="Group_116" transform="translate(52.385 152.86)">
			<path id="Path_80-2" class="st74" d="M8.95,13.22c-0.92,1.1-2,2.05-3.21,2.82c-1.58,0.85-4.06,1.19-5,2.08
				c-0.68,0.64-2.46,3.39,4.11,3.33s9.73,0.39,10.44-0.67S14.26,13,14.26,13S12.71,13.56,8.95,13.22z"/>
		</g>
		<g id="Group_117" transform="translate(23.9 149.33)">
			<path id="Path_81-2" class="st75" d="M0,13.42c0,0,0.47,3.26,0.53,3.74s5.22-0.29,5.22-0.29L6.16,13C6.16,13,0.65,12.96,0,13.42z
				"/>
		</g>
		<g id="Group_118" transform="translate(12.387 152.86)">
			<path id="Path_82-2" class="st74" d="M11.99,13.22c-0.92,1.1-2.01,2.05-3.22,2.82c-1.58,0.85-7.4,1.56-8.33,2.44
				c-0.68,0.64-1.8,3.21,7.44,2.97c6.56-0.17,9.73,0.39,10.44-0.67S17.3,13,17.3,13S15.83,13.6,11.99,13.22z"/>
		</g>
		<g id="Group_119" transform="translate(44.756 66.097)">
			<path id="Path_83-2" class="st74" d="M11.84,13c0,0,4.85,7.7,4.49,14.66c-0.36,6.96,1.76,14.56,2.49,21.83
				c0.81,8.11,4.13,27.3,4.26,31.64s-0.52,18.19-0.52,18.19l-6.65,0.15c0,0-5.58-33.56-7.03-36.98S0.24,34.66,0,31.92
				S11.84,13,11.84,13z"/>
		</g>
		<g id="Group_120" transform="translate(23.001 64.77)">
			<path id="Path_84-2" class="st74" d="M8.07,15.37c0,0-3.65,19.08-4.14,23.34s-0.8,20.62-1.05,23.28S1.29,96.84,0,100.8h8.5
				c0,0,6.53-23.4,6.53-34.47s5.04-24.07,8.3-31.37s10.7-7.48,12.71-21.03C36.03,13.93,10.78,11.07,8.07,15.37z"/>
		</g>
		<g id="Group_121" transform="translate(36.915 0.75)">
			<path id="Path_85-2" class="st43" d="M11.59,13.6c0,0-6.51-2.43-9.51,2.52s-2.71,14.87,0.57,16.09s8.21,0.58,9.89-2.52
				s3.2-7.58,3.12-10.57S13.3,14.46,11.59,13.6z"/>
		</g>
		<g id="Group_122" transform="translate(40.079 14.007)">
			<path id="Path_86-2" class="st43" d="M0.19,19.18c0.15,0.88,0.09,1.77-0.18,2.62c-0.45,0.86,8.43,0.89,8.43,0.89
				c0.47-2.94,1.17-5.85,2.09-8.68C11.9,10.02,0.19,19.18,0.19,19.18z"/>
		</g>
		<g id="Group_123" transform="translate(37.195 0)">
			<path id="Path_87-2" class="st76" d="M13.42,28.01c0,0-0.61,1.01-3.11,0.62s-5.55-3.72-6.6-4.09s-1.05-0.98-1.05-0.98L2,24.52
				l-1.11,0.07c0,0,1.01-2.98-0.52-4.19s1.58-9.63,9.6-6.83c0,0,6.16,1.7,5.94,5.2S14.8,26.26,13.42,28.01z"/>
		</g>
		<g id="Group_124" transform="translate(39.568 20.269)">
			<path id="Path_88-2" class="st77" d="M0,15.43c0,0,0.03-1.65,0.78-1.81s8.27-0.88,9.19-0.52v1.93C9.97,15.03,8.2,16.12,0,15.43z"
				/>
		</g>
		<g id="Group_125" transform="translate(39.816 8.012)">
			<path id="Path_89-2" class="st43" d="M0.2,14.28c0.14-0.59,1.64-2.27,2.21-0.47s-0.86,4.22-1.67,4.01S-0.16,15.77,0.2,14.28z"/>
		</g>
		<g id="Group_126" transform="translate(9.681 42.235)">
			<path id="Path_90-2" class="st78" d="M0.03,13c0,0,0.01,0,0.01,0C-0.01,13.02-0.02,13.03,0.03,13z"/>
		</g>
		<g id="Group_127" transform="translate(9.724 22.294)">
			<path id="Path_91-2" class="st79" d="M52.34,75.15c-3.54,0.93-7.15,1.57-10.8,1.93c-6.8,0.75-23.81-0.27-23.91-1.07
				s3.66-29.93,3.44-31.43s-0.33-6.84-0.33-6.84c-0.58,3.72-1.72,7.33-3.38,10.71c-0.65,1.18-2.83,4.87-3.89,4.03
				C8.39,48.39,0.5,33.07,0,32.94c0.42-0.18,3.74-1.71,4.2-1.86c0.41-0.14,4.08,3.75,6.31,6.17c0.99,1.07,1.7,1.86,1.7,1.86
				c0.64-1.45,2.98-10.56,3.71-13.71c1.64-7.11,1.39-7.41,1.39-7.41c4.98-1.51,12.53-4.57,12.53-4.57L39.81,13
				c0,0,9.15,2.01,12.75,3.64c0.34,0.15,0.34,8.16,1.28,10.26l-2.99,6.3c0,0-1.73,12.49-2.08,18.04
				C48.61,53.8,52.34,75.15,52.34,75.15z"/>
		</g>
		<g id="Group_128" transform="translate(52.888 25.936)">
			<path id="Path_92-2" class="st79" d="M11.1,33.66c-0.47,0.88-1.26,1.54-2.21,1.86c-0.51,0.21-1.06,0.26-1.6,0.16L6.9,35.61l0,0
				l-6.83-1.27c0,0-1.49-17.22,9.33-21.34C9.69,13.09,13.49,25.95,11.1,33.66z"/>
		</g>
		<g id="Group_129" transform="translate(59.791 39.748)">
			<path id="Path_93-2" class="st80" d="M1.99,21.71L1.99,21.71c-0.51,0.21-1.06,0.26-1.6,0.16L0,21.8l0,0L0.67,13L1.99,21.71z"/>
		</g>
		<g id="Group_130" transform="translate(20.234 46.536)">
			<path id="Path_94-2" class="st80" d="M1.7,14.86l-0.83,3.54C0.4,16.63,0.11,14.82,0,13C1,14.08,1.7,14.86,1.7,14.86z"/>
		</g>
		<g id="Group_131" transform="translate(50.357 1.912)">
			<path id="Path_95-2" class="st76" d="M0,13.02c0,0,8.53-1.07,0.15,13.17L0,13.02z"/>
		</g>
		<g id="Group_132" transform="translate(5.988 19.848)">
			<path id="Path_96-2" class="st74" d="M0.87,16.85L0,15.36L6.83,13l0.87,1.48L0.87,16.85z"/>
		</g>
	</g>
	<rect id="Rectangle_673" x="730.15" y="334.27" class="st37" width="29.36" height="1.45"/>
	<rect id="Rectangle_674" x="734.15" y="338.84" class="st37" width="21.04" height="1.45"/>
</g>
</svg>
